<?xml version="1.0" encoding="UTF-8" standalone="no"?><!DOCTYPE svg PUBLIC "-//W3C//DTD SVG 1.1//EN" "http://www.w3.org/Graphics/SVG/1.1/DTD/svg11.dtd"><svg width="100%" height="100%" viewBox="0 0 800 400" version="1.1" xmlns="http://www.w3.org/2000/svg" xmlns:xlink="http://www.w3.org/1999/xlink" xml:space="preserve" xmlns:serif="http://www.serif.com/" style="fill-rule:evenodd;clip-rule:evenodd;stroke-linejoin:round;stroke-miterlimit:2;"><g id="logo-filled"><rect id="background" x="-0" y="-0" width="800" height="400" style="fill:url(#_Linear1);"/><g id="icon"><path d="M240.168,232.691c0.539,-0.214 0.893,-0.735 0.893,-1.315c-0,-7.19 -0,-52.59 -0,-62.901c-0,-0.469 -0.232,-0.907 -0.62,-1.17c-0.387,-0.263 -0.88,-0.318 -1.315,-0.145c-8.63,3.419 -43.445,17.214 -49.479,19.604c-0.539,0.214 -0.893,0.735 -0.893,1.315c0,7.19 0,52.59 0,62.901c0,0.469 0.232,0.907 0.62,1.17c0.387,0.263 0.88,0.317 1.315,0.145c8.63,-3.419 43.445,-17.214 49.479,-19.604Z" style="fill:#fefefe;"/><path d="M148.946,168.928c-0.552,-0.219 -0.915,-0.752 -0.916,-1.345c-0.001,-0.594 0.36,-1.128 0.911,-1.348c9.018,-3.608 33.234,-13.295 37.153,-14.863c0.346,-0.138 0.732,-0.138 1.078,0.001c3.915,1.57 28.097,11.271 37.102,14.883c0.55,0.221 0.91,0.755 0.909,1.348c-0.001,0.593 -0.364,1.126 -0.915,1.344c-9.013,3.571 -33.203,13.156 -37.101,14.7c-0.343,0.136 -0.725,0.136 -1.068,0c-3.902,-1.546 -28.128,-11.144 -37.153,-14.72Z" style="fill:#fefefe;"/><path d="M133.468,232.837c-0.763,-0.302 -1.263,-1.039 -1.263,-1.859c-0,-8.103 -0,-50.091 -0,-61.641c-0,-0.663 0.328,-1.282 0.876,-1.654c0.548,-0.373 1.245,-0.45 1.86,-0.206c9.603,3.805 41.548,16.462 48.307,19.141c0.763,0.302 1.264,1.039 1.264,1.859c-0,8.103 -0,50.091 -0,61.641c-0,0.662 -0.328,1.282 -0.876,1.654c-0.548,0.373 -1.245,0.449 -1.861,0.205c-9.603,-3.804 -41.548,-16.462 -48.307,-19.14Z" style="fill:#fefefe;"/></g><g id="type"><path d="M312.975,226.256c4.344,0 8.332,-1.035 11.964,-3.105c3.631,-2.071 6.601,-4.837 8.909,-8.299l8.858,6.619c-3.394,4.615 -7.653,8.281 -12.778,10.996c-5.125,2.715 -10.776,4.073 -16.953,4.073c-5.091,0 -9.877,-0.984 -14.357,-2.953c-4.48,-1.968 -8.383,-4.633 -11.709,-7.993c-3.326,-3.36 -5.957,-7.297 -7.891,-11.811c-1.935,-4.514 -2.902,-9.35 -2.902,-14.509c-0,-5.159 0.967,-9.995 2.902,-14.509c1.934,-4.515 4.565,-8.452 7.891,-11.812c3.326,-3.36 7.229,-6.024 11.709,-7.993c4.48,-1.968 9.266,-2.952 14.357,-2.952c6.177,-0 11.828,1.357 16.953,4.073c5.125,2.715 9.384,6.38 12.778,10.996l-8.858,6.618c-2.308,-3.461 -5.278,-6.228 -8.909,-8.298c-3.632,-2.07 -7.62,-3.105 -11.964,-3.105c-3.53,-0 -6.839,0.712 -9.928,2.138c-3.088,1.425 -5.786,3.36 -8.094,5.804c-2.308,2.443 -4.141,5.294 -5.499,8.552c-1.357,3.259 -2.036,6.754 -2.036,10.488c0,3.733 0.679,7.229 2.036,10.487c1.358,3.259 3.191,6.11 5.499,8.553c2.308,2.444 5.006,4.378 8.094,5.804c3.089,1.425 6.398,2.138 9.928,2.138Z" style="fill:#fefefe;fill-rule:nonzero;"/><path d="M382.331,182.881c3.734,-0 7.247,0.713 10.539,2.138c3.292,1.426 6.177,3.36 8.654,5.804c2.478,2.443 4.43,5.328 5.855,8.655c1.426,3.326 2.138,6.855 2.138,10.589l0,26.371l-10.589,0l-0,-4.989c-2.308,1.765 -4.853,3.156 -7.637,4.175c-2.783,1.018 -5.769,1.527 -8.96,1.527c-3.733,-0 -7.246,-0.713 -10.538,-2.138c-3.292,-1.426 -6.16,-3.36 -8.604,-5.804c-2.444,-2.444 -4.378,-5.312 -5.804,-8.604c-1.425,-3.292 -2.138,-6.805 -2.138,-10.538c0,-3.734 0.713,-7.263 2.138,-10.589c1.426,-3.327 3.36,-6.212 5.804,-8.655c2.444,-2.444 5.312,-4.378 8.604,-5.804c3.292,-1.425 6.805,-2.138 10.538,-2.138Zm0,43.681c2.308,-0 4.463,-0.442 6.466,-1.324c2.002,-0.882 3.75,-2.07 5.244,-3.564c1.493,-1.493 2.681,-3.241 3.563,-5.243c0.883,-2.003 1.324,-4.124 1.324,-6.364c-0,-2.308 -0.441,-4.463 -1.324,-6.466c-0.882,-2.002 -2.07,-3.75 -3.563,-5.244c-1.494,-1.493 -3.242,-2.681 -5.244,-3.563c-2.003,-0.883 -4.158,-1.324 -6.466,-1.324c-2.308,0 -4.463,0.441 -6.465,1.324c-2.003,0.882 -3.751,2.07 -5.244,3.563c-1.493,1.494 -2.681,3.242 -3.564,5.244c-0.882,2.003 -1.323,4.158 -1.323,6.466c-0,2.24 0.441,4.361 1.323,6.364c0.883,2.002 2.071,3.75 3.564,5.243c1.493,1.494 3.241,2.682 5.244,3.564c2.002,0.882 4.157,1.324 6.465,1.324Z" style="fill:#fefefe;fill-rule:nonzero;"/><path d="M451.778,182.881c3.734,-0 7.23,0.696 10.488,2.087c3.258,1.392 6.109,3.309 8.553,5.753c2.443,2.444 4.361,5.295 5.752,8.553c1.392,3.258 2.088,6.754 2.088,10.487c-0,3.734 -0.696,7.23 -2.088,10.488c-1.391,3.258 -3.309,6.109 -5.752,8.553c-2.444,2.443 -5.295,4.361 -8.553,5.753c-3.258,1.391 -6.754,2.087 -10.488,2.087c-3.733,-0 -7.229,-0.696 -10.487,-2.087c-3.258,-1.392 -6.109,-3.31 -8.553,-5.753c-2.444,-2.444 -4.361,-5.295 -5.753,-8.553c-1.391,-3.258 -2.087,-6.754 -2.087,-10.488l-0,-62.823l10.385,0l0,41.543c2.308,-1.765 4.854,-3.14 7.637,-4.124c2.783,-0.984 5.736,-1.476 8.858,-1.476Zm0,43.273c2.24,0 4.362,-0.424 6.364,-1.272c2.002,-0.849 3.75,-2.02 5.244,-3.513c1.493,-1.494 2.664,-3.241 3.513,-5.244c0.848,-2.002 1.272,-4.124 1.272,-6.364c0,-2.24 -0.424,-4.361 -1.272,-6.363c-0.849,-2.003 -2.02,-3.751 -3.513,-5.244c-1.494,-1.494 -3.242,-2.664 -5.244,-3.513c-2.002,-0.848 -4.124,-1.273 -6.364,-1.273c-2.24,0 -4.361,0.425 -6.363,1.273c-2.003,0.849 -3.751,2.019 -5.244,3.513c-1.494,1.493 -2.681,3.224 -3.564,5.193c-0.882,1.968 -1.324,4.072 -1.324,6.313l0,0.101c0,2.24 0.442,4.362 1.324,6.364c0.883,2.003 2.07,3.75 3.564,5.244c1.493,1.493 3.241,2.664 5.244,3.513c2.002,0.848 4.123,1.272 6.363,1.272Z" style="fill:#fefefe;fill-rule:nonzero;"/><path d="M492.133,182.779l10.386,0l-0,53.761l-10.386,0l-0,-53.761Zm-0,-5.498l-0,-10.386l10.386,0l-0,10.386l-10.386,-0Z" style="fill:#fefefe;fill-rule:nonzero;"/><path d="M553.859,186.343c3.258,2.172 5.837,4.972 7.738,8.4c1.901,3.428 2.851,7.178 2.851,11.251l-0,30.648l-10.589,-0l-0,-30.648c-0,-1.765 -0.34,-3.445 -1.019,-5.04c-0.678,-1.595 -1.612,-2.987 -2.8,-4.175c-1.188,-1.188 -2.562,-2.121 -4.123,-2.8c-1.562,-0.679 -3.225,-1.018 -4.99,-1.018c-1.764,0 -3.444,0.339 -5.04,1.018c-1.595,0.679 -2.969,1.612 -4.123,2.8c-1.154,1.188 -2.071,2.58 -2.75,4.175c-0.678,1.595 -1.018,3.275 -1.018,5.04l0,30.648l-10.589,-0l-0,-54.168l10.589,-0l0,3.869c1.833,-1.222 3.852,-2.172 6.059,-2.851c2.206,-0.679 4.497,-1.018 6.872,-1.018c2.376,-0 4.667,0.339 6.873,1.018c2.206,0.679 4.226,1.629 6.059,2.851Z" style="fill:#fefefe;fill-rule:nonzero;"/><path d="M631.87,213.223l-42.663,0c0.407,1.833 1.103,3.547 2.087,5.142c0.985,1.595 2.19,2.97 3.615,4.124c1.426,1.154 3.021,2.053 4.786,2.698c1.764,0.645 3.631,0.967 5.6,0.967c2.376,0 4.599,-0.475 6.669,-1.425c2.07,-0.95 3.886,-2.274 5.447,-3.971l12.321,-0c-0.408,1.018 -0.9,1.985 -1.477,2.902c-0.577,0.916 -1.205,1.816 -1.884,2.698c-2.443,3.122 -5.498,5.617 -9.163,7.484c-3.666,1.866 -7.637,2.8 -11.913,2.8c-3.734,-0 -7.23,-0.696 -10.488,-2.087c-3.258,-1.392 -6.109,-3.31 -8.553,-5.753c-2.443,-2.444 -4.361,-5.295 -5.752,-8.553c-1.392,-3.258 -2.088,-6.754 -2.088,-10.488c0,-3.733 0.696,-7.229 2.088,-10.487c1.391,-3.258 3.309,-6.109 5.752,-8.553c2.444,-2.444 5.295,-4.361 8.553,-5.753c3.258,-1.391 6.754,-2.087 10.488,-2.087c4.276,-0 8.247,0.933 11.913,2.8c3.665,1.867 6.72,4.395 9.163,7.585c2.241,2.716 3.87,5.906 4.888,9.572c0.611,2.172 0.916,4.48 0.916,6.923c0,1.222 -0.102,2.376 -0.305,3.462Zm-26.575,-19.855c-3.326,0 -6.296,0.866 -8.91,2.597c-2.613,1.731 -4.598,4.022 -5.956,6.873l29.731,-0c-0.339,-0.543 -0.661,-1.087 -0.967,-1.63c-0.305,-0.543 -0.628,-1.052 -0.967,-1.527c-1.561,-1.968 -3.462,-3.513 -5.702,-4.633c-2.24,-1.12 -4.65,-1.68 -7.229,-1.68Z" style="fill:#fefefe;fill-rule:nonzero;"/><path d="M667.795,168.015l0,10.386l-9.774,-0l-0,58.241l-10.488,-0l0,-58.241l-9.876,-0l-0,-10.386l9.876,0l0,-20.058l10.488,-0l-0,20.058l9.774,0Z" style="fill:#fefefe;fill-rule:nonzero;"/></g></g><defs><linearGradient id="_Linear1" x1="0" y1="0" x2="1" y2="0" gradientUnits="userSpaceOnUse" gradientTransform="matrix(800,0,0,400,-2.4869e-14,-6.21725e-15)"><stop offset="0" style="stop-color:#0083b0;stop-opacity:1"/><stop offset="1" style="stop-color:#00b4db;stop-opacity:1"/></linearGradient></defs></svg>