<?xml version="1.0" encoding="UTF-8" standalone="no"?><!DOCTYPE svg PUBLIC "-//W3C//DTD SVG 1.1//EN" "http://www.w3.org/Graphics/SVG/1.1/DTD/svg11.dtd"><svg width="100%" height="100%" viewBox="0 0 1200 250" version="1.1" xmlns="http://www.w3.org/2000/svg" xmlns:xlink="http://www.w3.org/1999/xlink" xml:space="preserve" xmlns:serif="http://www.serif.com/" style="fill-rule:evenodd;clip-rule:evenodd;stroke-linejoin:round;stroke-miterlimit:2;"><rect x="-59.036" y="-75.367" width="1318.07" height="400.734" style="fill:#fefefe;"/><g><path d="M266.115,130.391l0,-7.969l49.922,0l0,7.969l-49.922,-0Zm0,15.187l0,-7.968l49.922,-0l0,7.968l-49.922,0Z" style="fill:#385369;fill-rule:nonzero;"/><rect x="559.62" y="130.143" width="551.179" height="9" style="fill:#385369;"/><path d="M781.824,124.351c-8.531,-1.062 -15.226,-5.359 -20.086,-12.89c-4.859,-7.531 -7.289,-17.672 -7.289,-30.422c0,-12.969 2.43,-23.242 7.289,-30.82c4.86,-7.579 11.555,-11.93 20.086,-13.055l0,3.891c-6,1.093 -10.562,4.921 -13.687,11.484c-3.125,6.562 -4.688,16.094 -4.688,28.594c0,11.906 1.531,21.164 4.594,27.773c3.062,6.609 7.656,10.477 13.781,11.602l0,3.843Z" style="fill:#385369;fill-rule:nonzero;"/><path d="M1086.11,81.039c-0,12.75 -2.43,22.891 -7.289,30.422c-4.86,7.531 -11.555,11.828 -20.086,12.89l-0,-3.843c6.125,-1.125 10.719,-4.993 13.781,-11.602c3.063,-6.609 4.594,-15.867 4.594,-27.773c-0,-12.5 -1.563,-22.032 -4.688,-28.594c-3.125,-6.563 -7.687,-10.391 -13.687,-11.484l-0,-3.891c8.531,1.125 15.226,5.476 20.086,13.055c4.859,7.578 7.289,17.851 7.289,30.82Z" style="fill:#385369;fill-rule:nonzero;"/><path d="M839.69,103.867l-21.188,0l0,-3.094c1.407,-0.156 2.602,-0.312 3.586,-0.468c0.985,-0.157 1.477,-0.563 1.477,-1.219c-0,-0.281 -0.156,-0.719 -0.469,-1.313c-0.312,-0.593 -0.625,-1.14 -0.937,-1.64c-0.782,-1.219 -1.852,-2.852 -3.211,-4.899c-1.36,-2.047 -3.024,-4.492 -4.992,-7.336c-1.625,2.032 -3.125,4.008 -4.5,5.93c-1.375,1.922 -2.813,3.961 -4.313,6.117c-0.219,0.313 -0.445,0.703 -0.68,1.172c-0.234,0.469 -0.351,0.844 -0.351,1.125c-0,0.688 0.445,1.258 1.336,1.711c0.89,0.453 2.226,0.758 4.008,0.914l-0,3l-17.11,0l0,-2.906c2.125,-0.625 3.836,-1.383 5.133,-2.274c1.297,-0.89 2.492,-1.992 3.586,-3.304c0.969,-1.25 2.32,-2.969 4.055,-5.157c1.734,-2.187 3.976,-5.156 6.726,-8.906c-1.594,-2.281 -3.539,-5.07 -5.836,-8.367c-2.297,-3.297 -4.195,-6.039 -5.695,-8.227c-0.813,-1.187 -1.742,-2.148 -2.789,-2.882c-1.047,-0.735 -2.524,-1.102 -4.43,-1.102l0,-3.094l20.11,0l-0,3.094c-1,0 -1.985,0.063 -2.954,0.188c-0.968,0.125 -1.453,0.406 -1.453,0.843c0,0.282 0.094,0.594 0.282,0.938c0.187,0.344 0.421,0.719 0.703,1.125c0.687,1.062 1.758,2.703 3.211,4.922c1.453,2.218 3.023,4.562 4.711,7.031c1.093,-1.5 2.367,-3.25 3.82,-5.25c1.453,-2 2.789,-3.906 4.008,-5.719c0.125,-0.219 0.25,-0.492 0.375,-0.82c0.125,-0.328 0.187,-0.649 0.187,-0.961c0,-0.656 -0.539,-1.18 -1.617,-1.57c-1.078,-0.391 -2.102,-0.664 -3.07,-0.821l-0,-3l17.062,0l0,2.907c-2.406,0.625 -4.281,1.367 -5.625,2.226c-1.344,0.859 -2.484,1.852 -3.422,2.977c-1.031,1.281 -2.257,2.859 -3.679,4.734c-1.422,1.875 -3.414,4.5 -5.977,7.875c2.844,4 5.156,7.281 6.938,9.844c1.781,2.562 3.578,5.203 5.39,7.922c0.906,1.375 1.914,2.461 3.024,3.257c1.109,0.797 2.632,1.258 4.57,1.383l-0,3.094Z" style="fill:#385369;fill-rule:nonzero;"/><rect x="875.249" y="78.758" width="35.127" height="4" style="fill:#385369;"/><path d="M597.542,109.726l-31.594,0l0,-3.328c0.938,-0.062 2.399,-0.195 4.383,-0.398c1.984,-0.203 3.352,-0.414 4.102,-0.633c0.968,-0.312 1.711,-0.82 2.226,-1.523c0.516,-0.704 0.774,-1.758 0.774,-3.164l-0,-32.907l-11.672,0l-0,-3.937l2.578,-0c3.375,-0 6.398,-0.625 9.07,-1.875c2.672,-1.25 4.586,-2.594 5.742,-4.031l3.891,-0c-0.094,2.031 -0.188,4.406 -0.281,7.125c-0.094,2.718 -0.141,5.156 -0.141,7.312l0,27.797c0,1.094 0.242,2.07 0.727,2.93c0.484,0.859 1.179,1.492 2.086,1.898c0.812,0.344 2.14,0.656 3.984,0.938c1.844,0.281 3.219,0.437 4.125,0.468l-0,3.328Z" style="fill:#385369;fill-rule:nonzero;"/><path d="M644.211,65.945c2,2.406 3.492,5.227 4.476,8.461c0.985,3.234 1.477,6.617 1.477,10.149c-0,4.25 -0.61,8.054 -1.828,11.414c-1.219,3.359 -2.891,6.148 -5.016,8.367c-2.187,2.281 -4.781,4 -7.781,5.156c-3,1.156 -6.344,1.734 -10.031,1.734c-4.032,0 -7.625,-0.671 -10.782,-2.015c-3.156,-1.344 -5.718,-3.188 -7.687,-5.531c-2.063,-2.438 -3.602,-5.29 -4.617,-8.555c-1.016,-3.266 -1.524,-6.789 -1.524,-10.57c0,-3.719 0.492,-7.141 1.477,-10.266c0.984,-3.125 2.523,-5.953 4.617,-8.484c2,-2.438 4.578,-4.36 7.734,-5.766c3.157,-1.406 6.766,-2.109 10.828,-2.109c4.282,-0 7.954,0.718 11.016,2.156c3.063,1.437 5.609,3.39 7.641,5.859Zm-4.407,18.61c0,-7.438 -1.273,-13.204 -3.82,-17.297c-2.547,-4.094 -6.008,-6.141 -10.383,-6.141c-4.437,0 -7.937,2.047 -10.5,6.141c-2.562,4.093 -3.843,9.859 -3.843,17.297c-0,7.062 1.226,12.742 3.679,17.039c2.453,4.296 5.977,6.445 10.571,6.445c4.593,-0 8.125,-2.149 10.593,-6.445c2.469,-4.297 3.703,-9.977 3.703,-17.039Z" style="fill:#385369;fill-rule:nonzero;"/><path d="M725.255,100.398l-4.172,4.172l-16.922,-17.015l-16.969,17.062l-4.125,-4.172l17.063,-16.969l-17.063,-16.921l4.172,-4.125l16.922,16.968l16.969,-17.015l4.125,4.125l-17.063,16.968l17.063,16.922Z" style="fill:#385369;fill-rule:nonzero;"/><path d="M488.939,134.899l-0,19.728c-0,1.8 1.152,2.736 3.024,2.736c1.8,0 3.024,-0.936 3.024,-2.736l-0,-19.728l19.656,0c1.872,0 2.736,-1.152 2.736,-3.024c-0,-1.8 -0.864,-3.024 -2.736,-3.024l-19.656,0l-0,-19.008c-0,-1.8 -1.224,-2.736 -3.024,-2.736c-1.872,0 -3.024,0.936 -3.024,2.736l-0,19.008l-19.584,0c-1.8,0 -2.736,1.224 -2.736,3.024c-0,1.872 0.936,3.024 2.736,3.024l19.584,0Z" style="fill:#385369;fill-rule:nonzero;"/><path d="M777.933,182.067l-0,0.768c-0,0.72 0.288,0.864 1.632,0.864c2.64,0 3.168,-0.192 3.168,-1.296c-0.096,-5.472 -0.096,-5.472 -0.096,-8.352c1.152,-0.624 1.536,-0.912 1.536,-1.296c-0,-0.192 -0.192,-0.48 -0.672,-0.816c-1.392,-1.104 -1.824,-1.44 -3.36,-2.496c-1.056,1.104 -1.392,1.44 -2.448,2.592l-2.784,0l-0,-4.848l10.32,0c0.336,0 0.528,-0.096 0.528,-0.288c-0,-0.096 -0.096,-0.24 -0.288,-0.432c-2.112,-1.632 -2.784,-2.112 -4.992,-3.6c-1.488,1.392 -1.92,1.824 -3.408,3.312l-20.064,0c-1.008,0 -1.776,-0.096 -2.976,-0.384l0.336,1.68c0.96,-0.192 1.776,-0.288 2.64,-0.288l6.48,0l-0,4.848l-2.64,0c-2.16,-1.248 -2.88,-1.632 -5.136,-2.688c0.096,2.064 0.096,2.736 0.144,5.04c-1.344,-1.44 -1.536,-1.632 -2.784,-2.88c-0.816,1.104 -1.104,1.44 -1.872,2.592l-0.24,0l-0,-8.112c1.536,-0.528 1.872,-0.72 1.872,-1.104c-0,-0.624 -0.048,-0.624 -6.96,-1.392c0.24,2.496 0.288,3.648 0.288,5.856l-0,4.752l-3.024,0c-0.96,0 -1.68,-0.096 -2.736,-0.384l0.288,1.68c0.96,-0.24 1.536,-0.288 2.448,-0.288l2.544,0c-1.152,8.112 -3.552,16.608 -6.144,21.552l0.432,0.336c2.832,-2.736 4.272,-5.04 6.432,-10.32l-0.144,4.512c-0.288,12.144 -0.288,12.144 -0.432,15.504c-0,0.912 0.288,1.056 1.92,1.056c1.344,0 2.496,-0.144 2.88,-0.432c0.288,-0.144 0.384,-0.432 0.384,-0.96c-0.048,-5.28 -0.048,-10.848 -0.048,-12.672l-0,-13.488c1.2,1.68 1.488,2.688 1.92,6.336c0.192,1.536 0.48,2.16 1.056,2.16c1.104,0 2.352,-1.968 2.352,-3.696c-0,-0.384 -0.048,-0.576 -0.144,-1.008c0.432,0.096 0.72,0.096 1.392,0.096c2.352,0 2.928,-0.192 2.976,-1.104l-0,-0.912l17.424,0Zm-0,-1.008l-3.024,0l-0,-8.016l3.024,0l-0,8.016Zm-7.248,0l-3.024,0l-0,-8.016l3.024,0l-0,8.016Zm-7.2,0l-2.976,0l-0,-8.016l2.976,0l-0,8.016Zm-12.528,-5.952l4.896,0c-0.048,2.928 -0.096,5.568 -0.144,7.872c-0.96,-1.296 -2.304,-2.304 -4.752,-3.552l-0,-4.32Zm19.728,-7.92l-0,4.848l-3.024,0l-0,-4.848l3.024,0Zm1.008,24.864l13.152,0c0.432,0 0.672,-0.096 0.672,-0.288c-0,-0.096 -0.096,-0.24 -0.288,-0.432c-2.016,-1.584 -2.688,-2.064 -4.752,-3.504c-1.536,1.536 -1.536,1.536 -3.12,3.216l-20.256,0c-1.104,0 -1.92,-0.096 -3.168,-0.432l0.336,1.776c1.008,-0.24 1.968,-0.336 2.784,-0.336l9.696,0l-0,9.696c-0,0.528 -0.144,0.672 -0.672,0.672c-2.304,-0.048 -3.168,-0.048 -6.192,-0.288l-0.048,0.624c3.648,1.104 4.752,1.968 4.944,3.84c0.096,0.864 0.192,0.96 0.816,0.96c1.152,0 3.072,-0.336 4.128,-0.768c1.392,-0.528 2.064,-1.536 2.064,-3.216l-0,-0.336c-0,-1.248 -0.048,-2.256 -0.048,-2.88c-0.048,-1.392 -0.048,-2.4 -0.048,-2.64l-0,-5.664Zm1.776,2.4c2.88,2.832 4.608,5.184 6.192,8.448c1.152,2.352 1.248,2.496 1.92,2.496c1.344,0 2.64,-2.064 2.64,-4.224c-0,-1.68 -0.672,-2.688 -2.496,-3.792c-1.632,-0.912 -4.32,-2.112 -7.872,-3.36l-0.384,0.432Zm-12.24,-8.448c-1.056,0 -2.112,-0.144 -3.216,-0.384l0.288,1.68c1.104,-0.24 1.776,-0.288 2.928,-0.288l20.112,0c0.336,0 0.528,-0.096 0.528,-0.288c-0,-0.048 -0.096,-0.192 -0.288,-0.384c-1.872,-1.584 -2.448,-2.064 -4.368,-3.456c-1.008,1.008 -2.016,2.064 -3.072,3.12l-12.912,0Zm-8.88,19.488c4.416,-2.304 6.672,-4.128 10.848,-8.688c1.488,-0.096 2.016,-0.288 2.016,-0.72c-0,-0.384 -0.672,-0.72 -3.168,-1.488c-0.768,-0.24 -1.92,-0.624 -3.36,-1.056c-0.48,1.824 -0.912,2.832 -2.016,4.896c-1.392,2.544 -2.592,4.272 -4.656,6.624l0.336,0.432Z" style="fill:#385369;fill-rule:nonzero;"/><path d="M818.781,176.355l-0,-4.704l10.8,0c0.288,0 0.48,-0.096 0.48,-0.288c-0,-0.096 -0.048,-0.24 -0.24,-0.432c-1.824,-1.68 -2.4,-2.112 -4.32,-3.6c-1.392,1.344 -1.824,1.824 -3.312,3.312l-6.096,0c1.344,-1.056 1.488,-1.152 3.504,-2.976c0.288,-0.24 0.72,-0.624 1.344,-1.152c1.728,-0.096 2.304,-0.288 2.304,-0.768c-0,-0.528 -0.864,-0.864 -3.792,-1.536c-0.672,-0.144 -1.872,-0.432 -3.216,-0.768c-0.336,2.112 -1.008,4.176 -2.4,7.2l-6.096,0c0.96,-1.296 1.488,-2.064 2.736,-4.224c1.536,-0.096 2.16,-0.336 2.16,-0.816c-0,-0.624 -0.288,-0.672 -7.104,-2.304c-0.48,2.448 -1.008,4.08 -2.112,6.672c-1.584,3.648 -3.168,6.48 -5.664,10.224l0.384,0.336c2.112,-1.776 2.928,-2.496 4.32,-3.936c-0.048,8.784 -0.048,9.648 -0.24,13.92c-0,0.864 0.24,1.008 1.824,1.008c0.384,0 0.768,0 1.392,-0.048c0.096,1.968 0.096,2.208 0.096,3.6l-0,1.296l-14.832,0c-1.44,0 -2.352,-0.096 -3.792,-0.432l0.336,1.728c1.056,-0.192 1.968,-0.288 3.408,-0.288l14.88,0c-0.048,4.8 -0.048,4.8 -0.192,9.504c-0,0.912 0.24,1.008 1.968,1.008c3.264,0 3.744,-0.144 3.744,-1.344c-0.192,-4.848 -0.192,-5.76 -0.192,-7.536l-0,-1.632l19.44,0c0.288,0 0.528,-0.096 0.528,-0.288c-0,-0.096 -0.048,-0.24 -0.24,-0.432c-2.256,-2.064 -2.976,-2.64 -5.28,-4.464c-1.584,1.728 -2.064,2.256 -3.648,4.176l-10.8,0l-0,-3.024c1.44,-0.432 1.872,-0.72 1.872,-1.104c-0,-0.576 -0.384,-0.672 -5.472,-1.248c0.096,-0.24 0.144,-0.336 0.144,-0.576l-0,-0.816l22.464,0c0.336,0 0.528,-0.096 0.528,-0.24c-0,-0.144 -0.048,-0.24 -0.192,-0.384c-1.92,-1.824 -2.544,-2.352 -4.656,-4.032c-1.344,1.536 -1.776,2.016 -3.12,3.648l-3.648,0l-0,-5.472l9.648,0c0.288,0 0.48,-0.096 0.48,-0.24c-0,-0.096 -0.048,-0.24 -0.24,-0.432c-1.776,-1.584 -2.304,-2.064 -4.128,-3.552c-1.296,1.344 -1.728,1.776 -3.024,3.216l-2.736,0l-0,-4.752l9.504,0c0.336,0 0.528,-0.096 0.528,-0.288c-0,-0.096 -0.048,-0.192 -0.24,-0.384c-1.728,-1.584 -2.256,-2.016 -4.08,-3.504c-1.68,1.776 -1.68,1.776 -2.928,3.168l-2.784,0Zm-11.376,6.768l6.528,0l-0,5.472l-6.528,0l-0,-5.472Zm-0,-1.008l-0,-4.752l6.528,0l-0,4.752l-6.528,0Zm-0,-5.76l-0,-4.704l6.528,0l-0,4.704l-6.528,0Zm-17.616,-11.856c2.112,1.92 2.928,2.928 4.224,5.52c0.816,1.488 1.008,1.728 1.68,1.728c1.2,0 2.4,-1.824 2.4,-3.696c-0,-2.208 -2.016,-3.168 -8.16,-3.936l-0.144,0.384Zm-3.408,7.008c2.016,1.824 2.784,2.88 3.936,5.616c0.624,1.392 0.96,1.728 1.68,1.728c1.152,0 2.4,-1.824 2.4,-3.648c-0,-2.112 -1.824,-3.024 -7.872,-4.08l-0.144,0.384Zm0.672,11.664c3.168,0.96 3.84,1.68 3.84,4.08c-0,0.864 -0.096,2.256 -0.288,3.504c-0.096,0.672 -0.144,1.344 -0.144,1.776c-0,0.912 0.624,1.488 1.632,1.488c0.864,0 1.776,-0.384 2.64,-1.056c1.104,-0.912 1.68,-2.064 1.68,-3.408c-0,-0.96 -0.24,-1.776 -0.816,-2.88c-0.528,-1.056 -0.672,-1.392 -0.672,-1.92c-0,-0.384 0.096,-0.72 0.384,-1.488l6.096,-14.496l-0.48,-0.24c-8.304,13.248 -9.216,14.544 -10.224,14.544c-0.288,0 -0.672,-0.048 -1.104,-0.144c-0.144,0 -0.672,-0.096 -1.536,-0.192c-0.144,-0.048 -0.48,-0.096 -0.816,-0.144l-0.192,0.576Z" style="fill:#385369;fill-rule:nonzero;"/><path d="M861.837,194.787l-0,1.392c-0,2.976 -0.048,6.816 -0.096,9.408l-0,0.096c-0,0.528 0.336,0.72 1.344,0.72c2.112,0 2.736,-0.24 2.784,-1.008c-0.048,-1.44 -0.048,-1.536 -0.096,-2.88c1.92,0.384 2.4,1.152 2.448,4.032c-0,0.528 0.144,0.672 0.576,0.672c0.912,0 2.352,-0.336 3.12,-0.72c1.104,-0.576 1.584,-1.488 1.584,-3.36c-0.048,-2.256 -0.096,-7.056 -0.096,-8.688l-0,-6.528c1.104,-0.624 1.488,-0.912 1.488,-1.296c-0,-0.24 -0.192,-0.48 -0.624,-0.864c-1.44,-1.152 -1.92,-1.488 -3.504,-2.64c-1.104,1.056 -1.44,1.392 -2.496,2.496l-15.744,0c-0.768,-0.432 -1.632,-0.864 -2.496,-1.344c0.24,-1.296 0.336,-1.872 0.48,-3.216l16.56,0l-0,1.008c0.048,0.576 0.384,0.768 1.536,0.768c1.104,0 2.544,-0.24 3.168,-0.528c0.384,-0.192 0.528,-0.384 0.528,-0.816c-0,-0.048 -0.048,-0.096 -0.048,-0.192c-0.096,-3.408 -0.096,-3.744 -0.096,-6.096c1.248,-0.624 1.632,-0.96 1.632,-1.344c-0,-0.24 -0.24,-0.48 -0.672,-0.864c-1.536,-1.104 -2.064,-1.44 -3.792,-2.592c-1.152,1.104 -1.488,1.44 -2.592,2.592l-15.024,0c-2.448,-1.344 -3.168,-1.728 -5.76,-2.832c0.096,1.536 0.144,2.112 0.144,3.36c-0,6.336 -0.384,11.568 -1.152,16.08c-0.768,4.656 -1.728,7.584 -3.696,11.568l0.432,0.336c2.88,-3.024 4.56,-5.76 6.336,-10.128c-0.096,9.024 -0.096,9.024 -0.24,14.976c-0,0.816 0.24,1.008 1.296,1.008c0.912,0 2.256,-0.144 2.64,-0.336c0.48,-0.192 0.672,-0.432 0.672,-1.056l-0,-11.184l2.832,0l-0,1.344c-0.048,5.904 -0.048,6 -0.096,9.552c-0,0.672 0.288,0.864 1.344,0.864c2.016,0 2.688,-0.24 2.736,-1.104c-0.096,-6.192 -0.096,-6.192 -0.096,-9.456l-0,-1.2l2.736,0Zm-0,-1.008l-2.736,0l-0,-7.152l2.736,0l-0,7.152Zm-6.624,0l-2.832,0l-0,-7.152l2.832,0l-0,7.152Zm10.56,1.008l3.024,0l-0,6.624c-0,0.432 -0.096,0.528 -0.528,0.576c-1.776,0 -1.776,0 -2.496,-0.048l-0,-7.152Zm-0,-1.008l-0,-7.152l3.024,0l-0,7.152l-3.024,0Zm-15.168,-13.728c0.192,-1.824 0.24,-2.976 0.336,-6.048l16.128,0l-0,6.048l-16.464,0Zm-19.44,8.352c2.4,-2.256 3.36,-3.312 5.04,-5.472l-0,8.256c-0,5.568 -0.096,9.744 -0.336,15.168l-0,0.192c-0,0.72 0.384,0.96 1.728,0.96c2.88,0 3.6,-0.288 3.648,-1.344c-0.048,-4.56 -0.048,-4.704 -0.048,-15.744l-0,-10.032c1.104,-0.336 1.536,-0.576 1.536,-0.96c-0,-0.528 -0.528,-0.672 -3.456,-1.104c2.448,-4.128 3.504,-6.48 5.28,-11.616c1.44,-0.24 1.968,-0.528 1.968,-0.96c-0,-0.576 -0.864,-0.864 -3.936,-1.584c-0.768,-0.144 -1.968,-0.432 -3.456,-0.768c-0.432,3.504 -1.104,6.576 -2.496,10.944c-1.728,5.568 -3.456,9.6 -5.856,13.728l0.384,0.336Zm14.496,-19.68c1.152,-0.192 1.776,-0.24 3.36,-0.24l26.208,0c0.384,0 0.624,-0.096 0.624,-0.336c-0,-0.144 -0.096,-0.288 -0.336,-0.528c-2.208,-1.824 -2.928,-2.352 -5.328,-4.08c-1.152,1.248 -2.352,2.544 -3.6,3.936l-17.568,0c-1.104,0 -2.64,-0.192 -3.648,-0.48l0.288,1.728Z" style="fill:#385369;fill-rule:nonzero;"/><path d="M894.333,170.787c1.152,-0.72 1.776,-1.632 1.776,-2.736c-0,-1.968 -1.872,-3.024 -8.352,-4.848l-0.336,0.384c1.824,1.872 2.976,3.696 3.6,5.808c0.24,0.816 0.336,1.056 0.672,1.392l-8.016,0c-1.248,0 -2.352,-0.096 -3.696,-0.384l0.288,1.68c1.296,-0.24 2.112,-0.288 3.408,-0.288l12.624,0l-0,5.664l-10.176,0c-1.152,0 -2.208,-0.096 -3.504,-0.336l0.336,1.584c0.96,-0.144 2.208,-0.24 3.12,-0.24l10.224,0l-0,6.144l-14.016,0c-1.296,0 -2.544,-0.144 -3.84,-0.384l0.24,1.632c1.152,-0.144 2.448,-0.24 3.6,-0.24l5.664,0c-0.72,3.36 -1.344,5.472 -2.352,8.016c-2.064,4.992 -4.656,8.88 -8.592,12.816l0.336,0.48c3.696,-2.16 5.712,-3.648 7.968,-5.904c2.4,-2.448 4.128,-4.896 5.712,-8.064l8.784,0l-0,11.232l-10.464,0c-1.488,0 -2.544,-0.096 -4.176,-0.384l0.336,1.68c1.296,-0.192 2.496,-0.288 3.888,-0.288l31.824,0c0.336,0 0.576,-0.144 0.576,-0.384c-0,-0.096 -0.048,-0.192 -0.24,-0.432c-2.256,-1.968 -2.976,-2.544 -5.424,-4.368c-1.632,1.776 -2.112,2.352 -3.648,4.176l-7.296,0l-0,-11.232l12.576,0c0.336,0 0.576,-0.144 0.576,-0.288c-0,-0.144 -0.096,-0.288 -0.24,-0.48c-2.112,-1.824 -2.784,-2.352 -4.992,-4.08c-1.536,1.68 -1.968,2.16 -3.408,3.84l-18.144,0c1.008,-2.304 1.344,-3.264 2.112,-6.336l27.216,0c0.288,0 0.528,-0.144 0.528,-0.336c-0,-0.144 -0.096,-0.288 -0.336,-0.528c-2.16,-1.824 -2.832,-2.4 -5.136,-4.176c-1.584,1.728 -2.064,2.256 -3.6,4.032l-10.752,0l-0,-6.144l15.12,0c0.336,0 0.576,-0.144 0.576,-0.336c-0,-0.144 -0.096,-0.288 -0.288,-0.528c-2.064,-1.68 -2.736,-2.16 -4.896,-3.696c-1.44,1.488 -1.872,1.968 -3.264,3.552l-7.248,0l-0,-5.664l18.24,0c0.384,0 0.624,-0.144 0.624,-0.336c-0,-0.144 -0.096,-0.288 -0.288,-0.528c-2.16,-1.728 -2.832,-2.256 -5.136,-3.936c-1.44,1.632 -1.872,2.16 -3.264,3.792l-7.68,0c2.496,-1.632 3.6,-2.448 6,-4.32l0.096,0c1.632,0 2.208,-0.192 2.208,-0.768c-0,-0.576 -1.056,-0.96 -7.44,-2.832c-0.672,2.448 -1.392,4.128 -3.312,7.92l-7.296,0Z" style="fill:#385369;fill-rule:nonzero;"/><path d="M120.977,139.16l-0,1.392c-0,2.976 -0.048,6.816 -0.096,9.408l-0,0.096c-0,0.528 0.336,0.72 1.344,0.72c2.112,-0 2.736,-0.24 2.784,-1.008c-0.048,-1.44 -0.048,-1.536 -0.096,-2.88c1.92,0.384 2.4,1.152 2.448,4.032c-0,0.528 0.144,0.672 0.576,0.672c0.912,-0 2.352,-0.336 3.12,-0.72c1.104,-0.576 1.584,-1.488 1.584,-3.36c-0.048,-2.256 -0.096,-7.056 -0.096,-8.688l-0,-6.528c1.104,-0.624 1.488,-0.912 1.488,-1.296c-0,-0.24 -0.192,-0.48 -0.624,-0.864c-1.44,-1.152 -1.92,-1.488 -3.504,-2.64c-1.104,1.056 -1.44,1.392 -2.496,2.496l-15.744,-0c-0.768,-0.432 -1.632,-0.864 -2.496,-1.344c0.24,-1.296 0.336,-1.872 0.48,-3.216l16.56,-0l-0,1.008c0.048,0.576 0.384,0.768 1.536,0.768c1.104,-0 2.544,-0.24 3.168,-0.528c0.384,-0.192 0.528,-0.384 0.528,-0.816c-0,-0.048 -0.048,-0.096 -0.048,-0.192c-0.096,-3.408 -0.096,-3.744 -0.096,-6.096c1.248,-0.624 1.632,-0.96 1.632,-1.344c-0,-0.24 -0.24,-0.48 -0.672,-0.864c-1.536,-1.104 -2.064,-1.44 -3.792,-2.592c-1.152,1.104 -1.488,1.44 -2.592,2.592l-15.024,-0c-2.448,-1.344 -3.168,-1.728 -5.76,-2.832c0.096,1.536 0.144,2.112 0.144,3.36c-0,6.336 -0.384,11.568 -1.152,16.08c-0.768,4.656 -1.728,7.584 -3.696,11.568l0.432,0.336c2.88,-3.024 4.56,-5.76 6.336,-10.128c-0.096,9.024 -0.096,9.024 -0.24,14.976c-0,0.816 0.24,1.008 1.296,1.008c0.912,-0 2.256,-0.144 2.64,-0.336c0.48,-0.192 0.672,-0.432 0.672,-1.056l-0,-11.184l2.832,-0l-0,1.344c-0.048,5.904 -0.048,6 -0.096,9.552c-0,0.672 0.288,0.864 1.344,0.864c2.016,-0 2.688,-0.24 2.736,-1.104c-0.096,-6.192 -0.096,-6.192 -0.096,-9.456l-0,-1.2l2.736,-0Zm-0,-1.008l-2.736,-0l-0,-7.152l2.736,-0l-0,7.152Zm-6.624,-0l-2.832,-0l-0,-7.152l2.832,-0l-0,7.152Zm10.56,1.008l3.024,-0l-0,6.624c-0,0.432 -0.096,0.528 -0.528,0.576c-1.776,-0 -1.776,-0 -2.496,-0.048l-0,-7.152Zm-0,-1.008l-0,-7.152l3.024,-0l-0,7.152l-3.024,-0Zm-15.168,-13.728c0.192,-1.824 0.24,-2.976 0.336,-6.048l16.128,-0l-0,6.048l-16.464,-0Zm-19.44,8.352c2.4,-2.256 3.36,-3.312 5.04,-5.472l-0,8.256c-0,5.568 -0.096,9.744 -0.336,15.168l-0,0.192c-0,0.72 0.384,0.96 1.728,0.96c2.88,-0 3.6,-0.288 3.648,-1.344c-0.048,-4.56 -0.048,-4.704 -0.048,-15.744l-0,-10.032c1.104,-0.336 1.536,-0.576 1.536,-0.96c-0,-0.528 -0.528,-0.672 -3.456,-1.104c2.448,-4.128 3.504,-6.48 5.28,-11.616c1.44,-0.24 1.968,-0.528 1.968,-0.96c-0,-0.576 -0.864,-0.864 -3.936,-1.584c-0.768,-0.144 -1.968,-0.432 -3.456,-0.768c-0.432,3.504 -1.104,6.576 -2.496,10.944c-1.728,5.568 -3.456,9.6 -5.856,13.728l0.384,0.336Zm14.496,-19.68c1.152,-0.192 1.776,-0.24 3.36,-0.24l26.208,-0c0.384,-0 0.624,-0.096 0.624,-0.336c-0,-0.144 -0.096,-0.288 -0.336,-0.528c-2.208,-1.824 -2.928,-2.352 -5.328,-4.08c-1.152,1.248 -2.352,2.544 -3.6,3.936l-17.568,-0c-1.104,-0 -2.64,-0.192 -3.648,-0.48l0.288,1.728Z" style="fill:#385369;fill-rule:nonzero;"/><path d="M153.473,115.16c1.152,-0.72 1.776,-1.632 1.776,-2.736c-0,-1.968 -1.872,-3.024 -8.352,-4.848l-0.336,0.384c1.824,1.872 2.976,3.696 3.6,5.808c0.24,0.816 0.336,1.056 0.672,1.392l-8.016,-0c-1.248,-0 -2.352,-0.096 -3.696,-0.384l0.288,1.68c1.296,-0.24 2.112,-0.288 3.408,-0.288l12.624,-0l-0,5.664l-10.176,-0c-1.152,-0 -2.208,-0.096 -3.504,-0.336l0.336,1.584c0.96,-0.144 2.208,-0.24 3.12,-0.24l10.224,-0l-0,6.144l-14.016,-0c-1.296,-0 -2.544,-0.144 -3.84,-0.384l0.24,1.632c1.152,-0.144 2.448,-0.24 3.6,-0.24l5.664,-0c-0.72,3.36 -1.344,5.472 -2.352,8.016c-2.064,4.992 -4.656,8.88 -8.592,12.816l0.336,0.48c3.696,-2.16 5.712,-3.648 7.968,-5.904c2.4,-2.448 4.128,-4.896 5.712,-8.064l8.784,-0l-0,11.232l-10.464,-0c-1.488,-0 -2.544,-0.096 -4.176,-0.384l0.336,1.68c1.296,-0.192 2.496,-0.288 3.888,-0.288l31.824,-0c0.336,-0 0.576,-0.144 0.576,-0.384c-0,-0.096 -0.048,-0.192 -0.24,-0.432c-2.256,-1.968 -2.976,-2.544 -5.424,-4.368c-1.632,1.776 -2.112,2.352 -3.648,4.176l-7.296,-0l-0,-11.232l12.576,-0c0.336,-0 0.576,-0.144 0.576,-0.288c-0,-0.144 -0.096,-0.288 -0.24,-0.48c-2.112,-1.824 -2.784,-2.352 -4.992,-4.08c-1.536,1.68 -1.968,2.16 -3.408,3.84l-18.144,-0c1.008,-2.304 1.344,-3.264 2.112,-6.336l27.216,-0c0.288,-0 0.528,-0.144 0.528,-0.336c-0,-0.144 -0.096,-0.288 -0.336,-0.528c-2.16,-1.824 -2.832,-2.4 -5.136,-4.176c-1.584,1.728 -2.064,2.256 -3.6,4.032l-10.752,-0l-0,-6.144l15.12,-0c0.336,-0 0.576,-0.144 0.576,-0.336c-0,-0.144 -0.096,-0.288 -0.288,-0.528c-2.064,-1.68 -2.736,-2.16 -4.896,-3.696c-1.44,1.488 -1.872,1.968 -3.264,3.552l-7.248,-0l-0,-5.664l18.24,-0c0.384,-0 0.624,-0.144 0.624,-0.336c-0,-0.144 -0.096,-0.288 -0.288,-0.528c-2.16,-1.728 -2.832,-2.256 -5.136,-3.936c-1.44,1.632 -1.872,2.16 -3.264,3.792l-7.68,-0c2.496,-1.632 3.6,-2.448 6,-4.32l0.096,-0c1.632,-0 2.208,-0.192 2.208,-0.768c-0,-0.576 -1.056,-0.96 -7.44,-2.832c-0.672,2.448 -1.392,4.128 -3.312,7.92l-7.296,-0Z" style="fill:#385369;fill-rule:nonzero;"/><path d="M213.041,121.352c0.288,-1.488 0.48,-2.688 0.912,-5.616l12.384,-0c0.384,-0 0.576,-0.096 0.576,-0.288c-0,-0.096 -0.096,-0.192 -0.288,-0.432c-2.016,-1.728 -2.64,-2.304 -4.848,-4.032c-1.344,1.584 -1.776,2.112 -3.12,3.744l-4.56,-0c0.24,-1.92 0.432,-3.168 0.48,-3.696c1.536,-0.336 2.112,-0.672 2.112,-1.104c-0,-0.528 -0.912,-0.816 -3.936,-1.2c-0.672,-0.096 -1.824,-0.288 -3.216,-0.48l-0,1.152c-0,1.2 -0.192,3.552 -0.432,5.328l-9.744,-0c-1.104,-0 -2.496,-0.144 -3.84,-0.432l0.336,1.728c1.392,-0.24 2.112,-0.288 3.504,-0.288l9.648,-0c-0.288,2.4 -0.48,3.6 -0.816,5.616l-0.528,-0c-1.92,-1.2 -2.496,-1.536 -4.512,-2.544c0.144,2.832 0.192,5.184 0.192,10.656c-0,6.576 -0.048,9.6 -0.192,15.552c0.048,0.768 0.384,0.96 1.824,0.96c1.392,-0 2.496,-0.192 2.88,-0.432c0.192,-0.144 0.288,-0.384 0.336,-0.768l-0,-1.68l9.552,-0l-0,1.344c0.048,0.672 0.336,0.864 1.632,0.864c0.72,-0 1.152,-0.048 1.92,-0.144c-1.392,1.488 -1.632,1.728 -2.928,3.216l-18.432,-0l-0,-25.152c1.152,-0.336 1.584,-0.624 1.584,-1.008c-0,-0.672 -1.152,-0.912 -6.72,-1.536c0.192,3.072 0.24,5.04 0.24,13.104c-0,7.056 -0,7.296 -0.144,17.184c-0,0.816 0.384,1.056 1.68,1.056c1.44,-0 2.592,-0.192 3.024,-0.48c0.24,-0.144 0.336,-0.432 0.336,-1.008l-0,-1.152l26.544,-0c0.288,-0 0.432,-0.096 0.432,-0.24c-0,-0.096 -0.048,-0.192 -0.192,-0.336c-2.064,-1.68 -2.544,-2.112 -4.896,-3.744c0.72,-0.192 0.912,-0.432 0.912,-1.2c-0.096,-6.768 -0.096,-10.512 -0.144,-20.352c1.344,-0.72 1.632,-0.96 1.632,-1.344c-0,-0.192 -0.096,-0.336 -0.48,-0.672c-1.536,-1.248 -2.064,-1.632 -3.84,-2.88c-1.056,1.152 -1.392,1.536 -2.448,2.736l-4.416,-0Zm-4.848,6.288l-0,-5.28l9.552,-0l-0,5.28l-9.552,-0Zm9.552,1.008l-0,5.904l-9.552,-0l-0,-5.904l9.552,-0Zm-0,6.912l-0,6.528l-9.552,-0l-0,-6.528l9.552,-0Zm-36.336,-2.832c2.496,-2.256 3.312,-3.12 4.944,-5.184l-0,8.304c-0.144,12.048 -0.144,12.048 -0.24,15.072c-0,0.96 0.288,1.152 1.68,1.152c1.68,-0 2.784,-0.192 3.216,-0.48c0.24,-0.192 0.384,-0.48 0.384,-1.056c-0,-3.888 -0.048,-10.032 -0.048,-10.128l-0,-15.408c1.104,-0.336 1.536,-0.624 1.536,-1.008c-0,-0.48 -0.624,-0.672 -3.12,-1.104c2.16,-3.264 3.456,-5.904 5.616,-11.664c1.68,-0.48 2.112,-0.672 2.112,-1.152c-0,-0.624 -0.816,-0.864 -7.728,-2.112c-0.624,4.512 -1.2,6.96 -2.592,11.088c-1.824,5.328 -3.408,8.784 -6.192,13.344l0.432,0.336Z" style="fill:#385369;fill-rule:nonzero;"/><path d="M973.321,60.509l18.528,0c0.384,0 0.576,-0.096 0.576,-0.288c-0,-0.144 -0.096,-0.24 -0.288,-0.432c-2.544,-1.92 -3.312,-2.496 -5.904,-4.272c-1.632,1.68 -2.112,2.208 -3.696,3.984l-26.4,0c-2.352,0 -3.216,-0.048 -4.848,-0.384l0.288,1.68c1.488,-0.192 2.736,-0.288 4.56,-0.288l11.664,0l-0,20.112l-13.536,0c-2.544,0 -3.552,-0.096 -5.328,-0.432l0.288,1.728c1.44,-0.192 3.264,-0.288 5.088,-0.288l13.488,0l-0,5.04c-0,1.776 -0.144,10.128 -0.24,13.104c-0,1.008 0.384,1.248 1.68,1.248c1.248,0 3.024,-0.192 3.456,-0.336c0.672,-0.24 0.864,-0.576 0.864,-1.248c-0.144,-5.616 -0.24,-10.368 -0.24,-12.768l-0,-5.04l20.496,0c0.336,0 0.528,-0.096 0.528,-0.288c-0,-0.096 -0.096,-0.192 -0.24,-0.384c-2.592,-2.208 -3.408,-2.88 -6.048,-4.896c-1.68,1.92 -2.208,2.544 -3.84,4.56l-10.896,0l-0,-20.112Zm-19.2,2.784c2.352,4.176 3.792,8.304 4.464,12.96c0.24,1.488 0.576,1.968 1.296,1.968c1.728,0 3.888,-2.688 3.888,-4.8c-0,-2.496 -3.504,-6.336 -9.312,-10.368l-0.336,0.24Zm22.224,15.888c4.704,-3.744 7.152,-6.432 11.28,-12.144c1.68,-0.096 2.256,-0.288 2.256,-0.816c-0,-0.528 -0.384,-0.672 -7.584,-3.552c-0.384,1.92 -0.768,3.312 -1.68,5.76c-1.776,4.896 -2.928,7.44 -4.656,10.416l0.384,0.336Z" style="fill:#385369;fill-rule:nonzero;"/><path d="M1005.24,70.541l-0,-10.512c1.392,-0.432 1.92,-0.768 1.92,-1.248c-0,-0.528 -0.768,-0.768 -3.888,-1.008c-0.768,-0.048 -2.016,-0.144 -3.6,-0.336c0.288,2.88 0.336,4.32 0.336,7.344l-0,5.76l-2.832,0c-0.816,0 -1.632,-0.096 -2.688,-0.384l0.24,1.68c0.816,-0.192 1.68,-0.288 2.448,-0.288l2.832,0l-0,15.36c-3.504,0.96 -3.504,0.96 -5.52,1.248c1.968,6.096 2.448,7.296 3.024,7.296c0.528,0 0.768,-0.624 0.816,-2.352c5.568,-3.312 10.752,-6.864 14.208,-9.792l-0.288,-0.528c-3.024,1.248 -4.272,1.728 -7.008,2.592l-0,-13.824l5.664,0c-1.056,2.304 -1.632,3.408 -3.168,5.856l0.432,0.432c4.32,-3.744 6.288,-6.048 9.024,-10.608l14.4,0c-0,9.36 -0.672,18.336 -1.632,22.992c-0.768,3.552 -1.296,4.32 -2.976,4.32c-1.296,0 -3.504,-0.144 -8.736,-0.624l-0.096,0.672c5.52,1.584 6.912,2.496 7.2,4.608c0.24,1.44 0.24,1.44 0.912,1.44c1.488,0 3.648,-0.576 4.944,-1.344c2.496,-1.488 3.6,-4.32 4.608,-11.52c0.672,-4.896 0.96,-9.12 1.2,-19.392c1.296,-0.72 1.68,-1.056 1.68,-1.536c-0,-0.288 -0.192,-0.528 -0.624,-0.912c-1.632,-1.296 -2.16,-1.68 -4.032,-2.928c-1.248,1.344 -1.632,1.776 -2.928,3.216l-13.296,0c1.104,-1.968 1.632,-3.072 3.12,-6.192c1.536,-0.192 2.208,-0.48 2.208,-1.008c-0,-0.24 -0.192,-0.432 -0.576,-0.576c-0.576,-0.288 -0.96,-0.336 -7.296,-1.632c-0.528,4.272 -1.68,8.4 -3.888,13.584c-1.152,-1.296 -1.536,-1.68 -3.12,-3.072c-1.104,1.392 -1.392,1.824 -2.4,3.216l-0.624,0Zm24.72,10.8c-8.688,2.736 -14.4,4.08 -18.96,4.512c2.64,7.2 2.64,7.2 3.12,7.2c0.528,0 0.72,-0.528 0.864,-2.448c6.24,-2.88 10.032,-5.088 15.216,-8.688l-0.24,-0.576Zm-13.68,-6.096c-0.912,0 -1.824,-0.144 -2.928,-0.384l0.288,1.68c0.816,-0.192 1.728,-0.288 2.64,-0.288l11.232,0c0.336,0 0.528,-0.144 0.528,-0.288c-0,-0.096 -0.096,-0.24 -0.24,-0.432c-1.776,-1.584 -2.352,-2.064 -4.224,-3.648c-1.344,1.632 -1.344,1.632 -2.832,3.36l-4.464,0Z" style="fill:#385369;fill-rule:nonzero;"/><path d="M385.667,136.505c2.062,1.625 3.773,3.719 5.132,6.281c1.36,2.563 2.04,5.766 2.04,9.61c-0,6.718 -2.297,12.265 -6.891,16.64c-4.594,4.375 -10.422,6.563 -17.484,6.563c-5.469,-0 -10.094,-1.297 -13.875,-3.891c-3.782,-2.594 -5.672,-5.609 -5.672,-9.047c-0,-1.593 0.39,-2.984 1.172,-4.172c0.781,-1.187 1.984,-1.781 3.609,-1.781c1.875,0 3.305,0.492 4.289,1.477c0.984,0.984 1.477,2.054 1.477,3.211c-0,1 -0.172,2.25 -0.516,3.75c-0.344,1.5 -0.609,2.609 -0.797,3.328c0.25,0.219 0.656,0.515 1.219,0.89c0.562,0.375 1.234,0.735 2.015,1.079c0.813,0.343 1.805,0.648 2.977,0.914c1.172,0.265 2.539,0.398 4.102,0.398c2,0 3.89,-0.406 5.671,-1.219c1.782,-0.812 3.282,-2.015 4.5,-3.609c1.344,-1.75 2.352,-3.742 3.024,-5.977c0.672,-2.234 1.008,-5.07 1.008,-8.507c-0,-4.407 -1.227,-8.055 -3.68,-10.946c-2.453,-2.89 -5.68,-4.336 -9.68,-4.336c-2.5,0 -4.836,0.469 -7.008,1.407c-2.171,0.937 -4.117,2.5 -5.835,4.687l-3.141,-1.219l3.984,-33.843l33.563,-0l-0,8.343l-29.766,0l-2.437,19.875c1.406,-1 3.257,-1.992 5.554,-2.976c2.297,-0.985 4.821,-1.477 7.571,-1.477c2.281,0 4.648,0.352 7.101,1.055c2.453,0.703 4.711,1.867 6.774,3.492Z" style="fill:#385369;fill-rule:nonzero;"/><path d="M440.21,114.708c2,2.406 3.493,5.227 4.477,8.461c0.984,3.234 1.477,6.617 1.477,10.149c-0,4.25 -0.61,8.054 -1.829,11.414c-1.218,3.359 -2.89,6.148 -5.015,8.367c-2.188,2.281 -4.781,4 -7.781,5.156c-3,1.156 -6.344,1.734 -10.032,1.734c-4.031,0 -7.625,-0.671 -10.781,-2.015c-3.156,-1.344 -5.719,-3.188 -7.687,-5.531c-2.063,-2.438 -3.602,-5.29 -4.618,-8.555c-1.015,-3.266 -1.523,-6.789 -1.523,-10.57c-0,-3.719 0.492,-7.141 1.476,-10.266c0.985,-3.125 2.524,-5.953 4.618,-8.484c2,-2.438 4.578,-4.36 7.734,-5.766c3.156,-1.406 6.766,-2.109 10.828,-2.109c4.281,-0 7.953,0.718 11.016,2.156c3.062,1.437 5.609,3.39 7.64,5.859Zm-4.406,18.61c0,-7.438 -1.273,-13.204 -3.82,-17.297c-2.547,-4.094 -6.008,-6.141 -10.383,-6.141c-4.437,0 -7.937,2.047 -10.5,6.141c-2.562,4.093 -3.844,9.859 -3.844,17.297c0,7.062 1.227,12.742 3.68,17.039c2.453,4.296 5.977,6.445 10.57,6.445c4.594,-0 8.125,-2.149 10.594,-6.445c2.469,-4.297 3.703,-9.977 3.703,-17.039Z" style="fill:#385369;fill-rule:nonzero;"/></g></svg>