<?xml version="1.0" encoding="UTF-8" standalone="no"?><!DOCTYPE svg PUBLIC "-//W3C//DTD SVG 1.1//EN" "http://www.w3.org/Graphics/SVG/1.1/DTD/svg11.dtd"><svg width="100%" height="100%" viewBox="0 0 714 252" version="1.1" xmlns="http://www.w3.org/2000/svg" xmlns:xlink="http://www.w3.org/1999/xlink" xml:space="preserve" xmlns:serif="http://www.serif.com/" style="fill-rule:evenodd;clip-rule:evenodd;stroke-linejoin:round;stroke-miterlimit:2;"><g><path d="M32.344,140.551c1.093,-2.094 1.883,-4.328 2.367,-6.703c0.484,-2.375 0.727,-5.094 0.727,-8.156c-0,-2.407 -0.227,-4.915 -0.68,-7.524c-0.453,-2.609 -1.133,-4.773 -2.039,-6.492c-1.031,-1.906 -2.328,-3.399 -3.891,-4.477c-1.562,-1.078 -3.594,-1.617 -6.094,-1.617c-2.531,0 -4.632,0.602 -6.304,1.805c-1.672,1.203 -3.008,2.758 -4.008,4.664c-0.938,1.75 -1.625,3.789 -2.063,6.117c-0.437,2.328 -0.656,4.758 -0.656,7.289c0,2.75 0.242,5.43 0.727,8.039c0.484,2.61 1.258,4.914 2.32,6.914c1.063,2 2.398,3.571 4.008,4.711c1.609,1.141 3.601,1.711 5.976,1.711c2.157,0 4.047,-0.57 5.672,-1.711c1.625,-1.14 2.938,-2.664 3.938,-4.57Zm-0.141,-37.734l18.516,-0l-0,5.718l-13.406,0l-0,0.235c2.562,2.125 4.507,4.648 5.835,7.57c1.329,2.922 1.993,6.148 1.993,9.68c-0,3.156 -0.508,6.218 -1.524,9.187c-1.015,2.969 -2.492,5.563 -4.429,7.781c-2,2.282 -4.391,4.086 -7.172,5.414c-2.782,1.329 -6.078,1.993 -9.891,1.993c-2.938,-0 -5.734,-0.555 -8.391,-1.664c-2.656,-1.11 -5.015,-2.727 -7.078,-4.852c-2.031,-2.094 -3.648,-4.648 -4.851,-7.664c-1.203,-3.016 -1.805,-6.398 -1.805,-10.148c0,-3.75 0.531,-7.086 1.594,-10.008c1.062,-2.922 2.594,-5.508 4.594,-7.758c1.937,-2.125 4.343,-3.797 7.218,-5.016c2.875,-1.218 6.016,-1.828 9.422,-1.828c1.781,0 3.367,0.11 4.758,0.328c1.391,0.219 2.93,0.563 4.617,1.032Z" style="fill:#385369;fill-rule:nonzero;"/><path d="M69.152,122.317l0,-7.969l49.922,-0l0,7.969l-49.922,-0Zm0,15.187l0,-7.969l49.922,0l0,7.969l-49.922,0Z" style="fill:#385369;fill-rule:nonzero;"/><rect x="271.318" y="121.426" width="85.334" height="9" style="fill:#385369;"/><path d="M339.766,192.089l-22.641,0l0,-3.094c0.719,-0.062 1.508,-0.125 2.368,-0.187c0.859,-0.063 1.57,-0.188 2.132,-0.375c0.875,-0.281 1.524,-0.774 1.946,-1.477c0.422,-0.703 0.633,-1.617 0.633,-2.742l-0,-23.766c-0,-3.281 -0.774,-5.812 -2.321,-7.593c-1.547,-1.782 -3.429,-2.672 -5.648,-2.672c-1.656,-0 -3.172,0.258 -4.547,0.773c-1.375,0.516 -2.594,1.149 -3.656,1.899c-1.032,0.718 -1.852,1.492 -2.461,2.32c-0.61,0.828 -1.055,1.492 -1.336,1.992l-0,26.578c-0,1.063 0.219,1.938 0.656,2.625c0.438,0.688 1.094,1.219 1.969,1.594c0.656,0.313 1.367,0.547 2.133,0.703c0.765,0.156 1.554,0.266 2.367,0.328l-0,3.094l-22.641,0l0,-3.094c0.719,-0.062 1.461,-0.125 2.227,-0.187c0.765,-0.063 1.429,-0.188 1.992,-0.375c0.875,-0.281 1.523,-0.774 1.945,-1.477c0.422,-0.703 0.633,-1.617 0.633,-2.742l0,-28.547c0,-1.062 -0.226,-2.039 -0.68,-2.93c-0.453,-0.89 -1.086,-1.617 -1.898,-2.179c-0.594,-0.375 -1.297,-0.649 -2.109,-0.821c-0.813,-0.171 -1.688,-0.289 -2.625,-0.351l-0,-3.047l15.375,-1.031l0.656,0.656l-0,6.516l0.234,-0c0.75,-0.75 1.688,-1.649 2.813,-2.696c1.125,-1.047 2.187,-1.898 3.187,-2.554c1.156,-0.75 2.531,-1.375 4.125,-1.875c1.594,-0.5 3.391,-0.75 5.391,-0.75c4.437,-0 7.726,1.382 9.867,4.148c2.141,2.766 3.211,6.445 3.211,11.039l-0,24.047c-0,1.094 0.187,1.977 0.562,2.648c0.375,0.672 1.016,1.196 1.922,1.571c0.75,0.312 1.399,0.531 1.946,0.656c0.547,0.125 1.304,0.219 2.273,0.281l0,3.094Z" style="fill:#385369;fill-rule:nonzero;"/><path d="M329.875,107.771l-31.593,-0l-0,-3.328c0.937,-0.063 2.398,-0.195 4.383,-0.399c1.984,-0.203 3.351,-0.414 4.101,-0.632c0.969,-0.313 1.711,-0.821 2.227,-1.524c0.515,-0.703 0.773,-1.758 0.773,-3.164l0,-32.906l-11.672,-0l0,-3.938l2.578,0c3.375,0 6.399,-0.625 9.071,-1.875c2.672,-1.25 4.586,-2.593 5.742,-4.031l3.89,0c-0.093,2.031 -0.187,4.406 -0.281,7.125c-0.094,2.719 -0.14,5.156 -0.14,7.313l-0,27.796c-0,1.094 0.242,2.071 0.726,2.93c0.485,0.86 1.18,1.492 2.086,1.899c0.813,0.343 2.141,0.656 3.984,0.937c1.844,0.281 3.219,0.438 4.125,0.469l0,3.328Z" style="fill:#385369;fill-rule:nonzero;"/><path d="M457.002,147.267l-3.764,35.474l-90.488,0l-0,-2.802l45.724,-50.93l-44.443,-57.096l0,-2.803l85.684,0l-0,30.19l-5.686,-0c-1.174,-5.339 -3.43,-10.37 -6.766,-15.095c-3.337,-4.724 -6.794,-7.38 -10.371,-7.968c-1.601,-0.266 -3.883,-0.467 -6.846,-0.6c-2.963,-0.134 -5.379,-0.2 -7.247,-0.2l-24.744,-0l35.634,45.804l0,1.282l-41.64,46.125l52.291,-0c2.402,-0 4.537,-0.721 6.406,-2.163c1.868,-1.441 3.47,-3.283 4.805,-5.525c1.228,-2.029 2.322,-4.284 3.283,-6.766c0.961,-2.483 1.815,-4.792 2.562,-6.927l5.606,-0Z" style="fill:#385369;fill-rule:nonzero;"/><path d="M205.198,220.632l91.353,-220.632l371.89,1.12l-0.033,11c0,-0 -364.515,-1.098 -364.515,-1.098l-69.775,168.518l-29.755,72.312l-6.543,-0l-2.748,-6.716l-0.017,-0.007l0.007,-0.018l-34.644,-84.665l-17.969,-0l0,-9.082l35.157,-0l27.592,69.268Z" style="fill:#385369;"/><path d="M503.827,169.52c-8.531,-1.063 -15.226,-5.36 -20.086,-12.891c-4.859,-7.531 -7.289,-17.672 -7.289,-30.422c0,-12.969 2.43,-23.242 7.289,-30.82c4.86,-7.578 11.555,-11.93 20.086,-13.055l0,3.891c-6,1.094 -10.562,4.922 -13.687,11.484c-3.125,6.563 -4.688,16.094 -4.688,28.594c0,11.906 1.531,21.164 4.594,27.773c3.062,6.61 7.656,10.477 13.781,11.602l0,3.844Z" style="fill:#385369;fill-rule:nonzero;"/><path d="M702.216,126.207c0,12.75 -2.43,22.891 -7.289,30.422c-4.859,7.531 -11.555,11.828 -20.086,12.891l0,-3.844c6.125,-1.125 10.719,-4.992 13.781,-11.602c3.063,-6.609 4.594,-15.867 4.594,-27.773c0,-12.5 -1.562,-22.031 -4.687,-28.594c-3.125,-6.562 -7.688,-10.39 -13.688,-11.484l0,-3.891c8.531,1.125 15.227,5.477 20.086,13.055c4.859,7.578 7.289,17.851 7.289,30.82Z" style="fill:#385369;fill-rule:nonzero;"/><path d="M372.527,236.161l-14.906,-0l-0,-2.063c0.479,-0.041 0.974,-0.083 1.484,-0.125c0.51,-0.041 0.953,-0.125 1.328,-0.25c0.583,-0.187 1.016,-0.515 1.297,-0.984c0.281,-0.469 0.422,-1.078 0.422,-1.828l-0,-19.031c-0,-0.667 -0.151,-1.276 -0.453,-1.828c-0.302,-0.553 -0.724,-1.016 -1.266,-1.391c-0.396,-0.25 -0.969,-0.464 -1.719,-0.641c-0.75,-0.177 -1.437,-0.286 -2.062,-0.328l-0,-2.031l10.875,-0.688l0.437,0.438l0,25.125c0,0.729 0.141,1.333 0.422,1.812c0.281,0.48 0.724,0.834 1.328,1.063c0.459,0.187 0.907,0.338 1.344,0.453c0.438,0.115 0.927,0.193 1.469,0.234l-0,2.063Zm-3.938,-43.344c0,1.188 -0.39,2.224 -1.172,3.11c-0.781,0.885 -1.744,1.328 -2.89,1.328c-1.063,-0 -1.985,-0.422 -2.766,-1.266c-0.781,-0.844 -1.172,-1.807 -1.172,-2.891c0,-1.145 0.391,-2.145 1.172,-3c0.781,-0.854 1.703,-1.281 2.766,-1.281c1.187,0 2.161,0.401 2.922,1.203c0.76,0.802 1.14,1.735 1.14,2.797Z" style="fill:#385369;fill-rule:nonzero;"/><path d="M425.493,208.63l-31.532,-0l0,-3.907l31.532,0l-0,3.907Zm-0,11.625l-31.532,-0l0,-3.907l31.532,0l-0,3.907Z" style="fill:#385369;fill-rule:nonzero;"/><path d="M471.371,229.755l-21.063,-0l0,-2.219c0.625,-0.042 1.599,-0.13 2.922,-0.266c1.323,-0.135 2.234,-0.276 2.734,-0.422c0.646,-0.208 1.141,-0.546 1.485,-1.015c0.343,-0.469 0.515,-1.172 0.515,-2.11l0,-21.937l-7.781,-0l0,-2.625l1.719,-0c2.25,-0 4.265,-0.417 6.047,-1.25c1.781,-0.833 3.057,-1.729 3.828,-2.688l2.594,0c-0.063,1.355 -0.125,2.938 -0.188,4.75c-0.062,1.813 -0.094,3.438 -0.094,4.875l0,18.532c0,0.729 0.162,1.38 0.485,1.953c0.323,0.573 0.786,0.995 1.39,1.265c0.542,0.23 1.427,0.438 2.657,0.625c1.229,0.188 2.145,0.292 2.75,0.313l-0,2.219Z" style="fill:#385369;fill-rule:nonzero;"/><path d="M426.914,55.974l-15.093,0l-0,-2.062c0.479,-0.042 1.005,-0.084 1.578,-0.125c0.573,-0.042 1.047,-0.125 1.422,-0.25c0.583,-0.188 1.015,-0.516 1.297,-0.985c0.281,-0.469 0.421,-1.078 0.421,-1.828l0,-15.844c0,-2.187 -0.515,-3.875 -1.546,-5.062c-1.032,-1.188 -2.287,-1.781 -3.766,-1.781c-1.104,-0 -2.115,0.171 -3.031,0.515c-0.917,0.344 -1.73,0.766 -2.438,1.266c-0.687,0.479 -1.234,0.995 -1.64,1.547c-0.407,0.552 -0.704,0.994 -0.891,1.328l-0,17.719c-0,0.708 0.146,1.291 0.437,1.75c0.292,0.458 0.73,0.812 1.313,1.062c0.437,0.208 0.911,0.365 1.422,0.469c0.51,0.104 1.036,0.177 1.578,0.219l-0,2.062l-15.094,0l0,-2.062c0.479,-0.042 0.974,-0.084 1.485,-0.125c0.51,-0.042 0.953,-0.125 1.328,-0.25c0.583,-0.188 1.015,-0.516 1.297,-0.985c0.281,-0.469 0.421,-1.078 0.421,-1.828l0,-19.031c0,-0.709 -0.151,-1.36 -0.453,-1.953c-0.302,-0.594 -0.724,-1.078 -1.265,-1.453c-0.396,-0.25 -0.865,-0.433 -1.407,-0.547c-0.541,-0.115 -1.125,-0.193 -1.75,-0.235l0,-2.031l10.25,-0.687l0.438,0.437l-0,4.344l0.156,-0c0.5,-0.5 1.125,-1.099 1.875,-1.797c0.75,-0.698 1.458,-1.266 2.125,-1.703c0.771,-0.5 1.688,-0.917 2.75,-1.25c1.063,-0.334 2.261,-0.5 3.594,-0.5c2.958,-0 5.151,0.922 6.578,2.765c1.427,1.844 2.141,4.297 2.141,7.36l-0,16.031c-0,0.729 0.125,1.318 0.375,1.766c0.25,0.448 0.677,0.797 1.281,1.047c0.5,0.208 0.932,0.354 1.297,0.437c0.364,0.083 0.87,0.146 1.515,0.188l0,2.062Z" style="fill:#385369;fill-rule:nonzero;"/><path d="M713.196,76.99l-21.96,0l-0,-3.187c0.421,-0.485 1.007,-1.028 1.757,-1.629c0.75,-0.602 1.641,-1.254 2.672,-1.957c0.625,-0.422 1.375,-0.883 2.25,-1.383c0.875,-0.5 1.867,-1.047 2.977,-1.641c1.234,-0.656 2.183,-1.234 2.847,-1.734c0.665,-0.5 1.27,-1.117 1.817,-1.851c0.359,-0.485 0.648,-1.09 0.867,-1.817c0.219,-0.726 0.328,-1.762 0.328,-3.105c0,-1.953 -0.523,-3.387 -1.57,-4.301c-1.047,-0.914 -2.391,-1.371 -4.031,-1.371c-1.016,-0 -1.977,0.199 -2.883,0.597c-0.906,0.399 -1.586,0.95 -2.039,1.653c0.109,0.5 0.246,1.094 0.41,1.781c0.164,0.688 0.246,1.359 0.246,2.016c-0,0.593 -0.246,1.121 -0.738,1.582c-0.492,0.461 -1.223,0.691 -2.192,0.691c-0.781,0 -1.383,-0.269 -1.804,-0.809c-0.422,-0.539 -0.633,-1.261 -0.633,-2.167c-0,-0.844 0.234,-1.692 0.703,-2.543c0.469,-0.852 1.141,-1.637 2.016,-2.356c0.859,-0.703 1.921,-1.273 3.187,-1.711c1.266,-0.437 2.633,-0.656 4.102,-0.656c3.203,-0 5.746,0.715 7.629,2.144c1.882,1.43 2.824,3.34 2.824,5.731c-0,1.141 -0.168,2.18 -0.504,3.117c-0.336,0.938 -0.879,1.766 -1.629,2.484c-0.828,0.797 -1.797,1.481 -2.906,2.051c-1.11,0.571 -2.805,1.364 -5.086,2.379c-1.36,0.61 -2.625,1.246 -3.797,1.91c-1.172,0.664 -2.133,1.309 -2.883,1.934l18.023,-0l0,4.148Z" style="fill:#385369;fill-rule:nonzero;"/><path d="M551.171,149.035l-21.188,0l0,-3.093c1.407,-0.157 2.602,-0.313 3.586,-0.469c0.985,-0.156 1.477,-0.563 1.477,-1.219c-0,-0.281 -0.156,-0.719 -0.469,-1.312c-0.312,-0.594 -0.625,-1.141 -0.937,-1.641c-0.782,-1.219 -1.852,-2.852 -3.211,-4.899c-1.36,-2.046 -3.024,-4.492 -4.992,-7.335c-1.625,2.031 -3.125,4.007 -4.5,5.929c-1.375,1.922 -2.813,3.961 -4.313,6.117c-0.219,0.313 -0.445,0.704 -0.68,1.172c-0.234,0.469 -0.351,0.844 -0.351,1.125c-0,0.688 0.445,1.258 1.336,1.711c0.89,0.453 2.226,0.758 4.008,0.914l-0,3l-17.11,0l0,-2.906c2.125,-0.625 3.836,-1.383 5.133,-2.273c1.297,-0.891 2.492,-1.993 3.586,-3.305c0.969,-1.25 2.32,-2.969 4.055,-5.156c1.734,-2.188 3.976,-5.157 6.726,-8.907c-1.594,-2.281 -3.539,-5.07 -5.836,-8.367c-2.297,-3.297 -4.195,-6.039 -5.695,-8.226c-0.813,-1.188 -1.742,-2.149 -2.789,-2.883c-1.047,-0.735 -2.524,-1.102 -4.43,-1.102l0,-3.093l20.11,-0l-0,3.093c-1,0 -1.985,0.063 -2.954,0.188c-0.968,0.125 -1.453,0.406 -1.453,0.844c0,0.281 0.094,0.593 0.282,0.937c0.187,0.344 0.421,0.719 0.703,1.125c0.687,1.063 1.758,2.703 3.211,4.922c1.453,2.219 3.023,4.562 4.711,7.031c1.093,-1.5 2.367,-3.25 3.82,-5.25c1.453,-2 2.789,-3.906 4.008,-5.719c0.125,-0.218 0.25,-0.492 0.375,-0.82c0.125,-0.328 0.187,-0.648 0.187,-0.961c0,-0.656 -0.539,-1.18 -1.617,-1.57c-1.078,-0.391 -2.102,-0.664 -3.07,-0.82l-0,-3l17.062,-0l0,2.906c-2.406,0.625 -4.281,1.367 -5.625,2.226c-1.344,0.86 -2.484,1.852 -3.422,2.977c-1.031,1.281 -2.257,2.859 -3.679,4.734c-1.422,1.875 -3.414,4.5 -5.977,7.875c2.844,4 5.156,7.282 6.938,9.844c1.781,2.563 3.578,5.203 5.39,7.922c0.906,1.375 1.914,2.461 3.024,3.258c1.109,0.797 2.632,1.258 4.57,1.383l-0,3.093Z" style="fill:#385369;fill-rule:nonzero;"/><path d="M568.257,149.035l-10.606,0l-0,-1.467c0.34,-0.03 0.693,-0.06 1.056,-0.089c0.363,-0.03 0.678,-0.089 0.945,-0.178c0.415,-0.134 0.723,-0.367 0.923,-0.701c0.2,-0.333 0.3,-0.767 0.3,-1.3l-0,-13.543c-0,-0.474 -0.108,-0.908 -0.323,-1.301c-0.215,-0.392 -0.515,-0.722 -0.9,-0.989c-0.282,-0.178 -0.69,-0.33 -1.223,-0.456c-0.534,-0.126 -1.023,-0.204 -1.468,-0.233l0,-1.446l7.739,-0.489l0.311,0.311l-0,17.879c-0,0.519 0.1,0.948 0.3,1.289c0.2,0.341 0.515,0.593 0.945,0.756c0.326,0.134 0.645,0.241 0.956,0.323c0.312,0.081 0.66,0.137 1.045,0.167l0,1.467Zm-2.801,-30.842c-0,0.845 -0.278,1.582 -0.834,2.212c-0.556,0.63 -1.242,0.945 -2.057,0.945c-0.756,0 -1.412,-0.3 -1.968,-0.9c-0.556,-0.601 -0.834,-1.286 -0.834,-2.057c0,-0.815 0.278,-1.527 0.834,-2.135c0.556,-0.608 1.212,-0.911 1.968,-0.911c0.845,-0 1.538,0.285 2.079,0.856c0.541,0.57 0.812,1.234 0.812,1.99Z" style="fill:#385369;fill-rule:nonzero;"/><path d="M674.841,149.035l-21.187,0l-0,-3.093c1.406,-0.157 2.601,-0.313 3.585,-0.469c0.985,-0.156 1.477,-0.563 1.477,-1.219c0,-0.281 -0.156,-0.719 -0.469,-1.312c-0.312,-0.594 -0.625,-1.141 -0.937,-1.641c-0.781,-1.219 -1.852,-2.852 -3.211,-4.899c-1.36,-2.046 -3.024,-4.492 -4.992,-7.335c-1.625,2.031 -3.125,4.007 -4.5,5.929c-1.375,1.922 -2.813,3.961 -4.313,6.117c-0.219,0.313 -0.445,0.704 -0.68,1.172c-0.234,0.469 -0.351,0.844 -0.351,1.125c-0,0.688 0.445,1.258 1.336,1.711c0.89,0.453 2.226,0.758 4.008,0.914l-0,3l-17.11,0l0,-2.906c2.125,-0.625 3.836,-1.383 5.133,-2.273c1.297,-0.891 2.492,-1.993 3.586,-3.305c0.969,-1.25 2.32,-2.969 4.055,-5.156c1.734,-2.188 3.976,-5.157 6.726,-8.907c-1.593,-2.281 -3.539,-5.07 -5.836,-8.367c-2.297,-3.297 -4.195,-6.039 -5.695,-8.226c-0.812,-1.188 -1.742,-2.149 -2.789,-2.883c-1.047,-0.735 -2.523,-1.102 -4.43,-1.102l0,-3.093l20.11,-0l-0,3.093c-1,0 -1.985,0.063 -2.953,0.188c-0.969,0.125 -1.454,0.406 -1.454,0.844c0,0.281 0.094,0.593 0.282,0.937c0.187,0.344 0.422,0.719 0.703,1.125c0.687,1.063 1.758,2.703 3.211,4.922c1.453,2.219 3.023,4.562 4.711,7.031c1.093,-1.5 2.367,-3.25 3.82,-5.25c1.453,-2 2.789,-3.906 4.008,-5.719c0.125,-0.218 0.25,-0.492 0.375,-0.82c0.125,-0.328 0.187,-0.648 0.187,-0.961c0,-0.656 -0.539,-1.18 -1.617,-1.57c-1.078,-0.391 -2.101,-0.664 -3.07,-0.82l-0,-3l17.062,-0l0,2.906c-2.406,0.625 -4.281,1.367 -5.625,2.226c-1.343,0.86 -2.484,1.852 -3.422,2.977c-1.031,1.281 -2.257,2.859 -3.679,4.734c-1.422,1.875 -3.414,4.5 -5.977,7.875c2.844,4 5.156,7.282 6.938,9.844c1.781,2.563 3.578,5.203 5.39,7.922c0.907,1.375 1.914,2.461 3.024,3.258c1.109,0.797 2.633,1.258 4.57,1.383l0,3.093Z" style="fill:#385369;fill-rule:nonzero;"/><rect x="626.935" y="88.463" width="47.47" height="4" style="fill:#385369;"/><rect x="581.904" y="123.926" width="35.127" height="4" style="fill:#385369;"/></g></svg>