<?xml version="1.0" encoding="UTF-8" standalone="no"?><!DOCTYPE svg PUBLIC "-//W3C//DTD SVG 1.1//EN" "http://www.w3.org/Graphics/SVG/1.1/DTD/svg11.dtd"><svg width="100%" height="100%" viewBox="0 0 800 400" version="1.1" xmlns="http://www.w3.org/2000/svg" xmlns:xlink="http://www.w3.org/1999/xlink" xml:space="preserve" xmlns:serif="http://www.serif.com/" style="fill-rule:evenodd;clip-rule:evenodd;stroke-linejoin:round;stroke-miterlimit:2;"><rect id="background" x="-0" y="-0" width="800" height="400" style="fill:#6eadf4;"/><path d="M558.909,151.091c-0,-27.595 -22.405,-50 -50,-50l-157.818,0c-27.595,0 -50,22.405 -50,50l0,157.818c0,27.595 22.405,50 50,50l157.818,-0c27.595,-0 50,-22.405 50,-50l-0,-157.818Z" style="fill-opacity:0.1;"/><path d="M528.909,121.091c-0,-27.595 -22.405,-50 -50,-50l-157.818,0c-27.595,0 -50,22.405 -50,50l0,157.818c0,27.595 22.405,50 50,50l157.818,-0c27.595,-0 50,-22.405 50,-50l-0,-157.818Z" style="fill:#3178c6;"/><path d="M430.686,276.249l-0,25.209c4.098,2.1 8.944,3.675 14.54,4.726c5.595,1.05 11.492,1.575 17.692,1.575c6.042,0 11.781,-0.577 17.219,-1.733c5.438,-1.155 10.206,-3.059 14.304,-5.711c4.098,-2.652 7.342,-6.118 9.733,-10.398c2.39,-4.28 3.585,-9.571 3.585,-15.873c0,-4.569 -0.682,-8.574 -2.048,-12.013c-1.367,-3.44 -3.336,-6.499 -5.911,-9.177c-2.574,-2.679 -5.661,-5.082 -9.26,-7.209c-3.599,-2.127 -7.657,-4.135 -12.176,-6.026c-3.31,-1.365 -6.278,-2.691 -8.905,-3.978c-2.627,-1.287 -4.86,-2.6 -6.699,-3.939c-1.839,-1.339 -3.257,-2.757 -4.255,-4.254c-0.998,-1.497 -1.498,-3.19 -1.498,-5.081c0,-1.733 0.447,-3.295 1.34,-4.687c0.894,-1.392 2.154,-2.586 3.783,-3.584c1.629,-0.998 3.625,-1.773 5.989,-2.324c2.365,-0.551 4.991,-0.827 7.881,-0.827c2.101,0 4.321,0.158 6.659,0.472c2.338,0.316 4.689,0.802 7.054,1.458c2.364,0.656 4.662,1.484 6.895,2.481c2.233,0.998 4.295,2.153 6.186,3.467l0,-23.554c-3.835,-1.471 -8.025,-2.56 -12.569,-3.269c-4.545,-0.709 -9.759,-1.064 -15.643,-1.064c-5.99,0 -11.664,0.644 -17.023,1.93c-5.359,1.287 -10.074,3.295 -14.146,6.026c-4.072,2.731 -7.289,6.21 -9.654,10.438c-2.364,4.228 -3.546,9.282 -3.546,15.164c-0,7.51 2.167,13.917 6.502,19.222c4.334,5.303 10.914,9.794 19.741,13.47c3.467,1.418 6.699,2.809 9.693,4.175c2.995,1.366 5.583,2.784 7.762,4.254c2.181,1.47 3.901,3.072 5.163,4.805c1.261,1.733 1.891,3.702 1.891,5.908c0,1.628 -0.394,3.138 -1.182,4.53c-0.788,1.392 -1.984,2.599 -3.586,3.623c-1.602,1.025 -3.599,1.825 -5.989,2.403c-2.391,0.578 -5.188,0.866 -8.393,0.866c-5.464,0 -10.875,-0.958 -16.235,-2.875c-5.359,-1.916 -10.324,-4.792 -14.894,-8.626Zm-42.378,-62.108l32.338,-0l-0,-20.687l-90.136,-0l0,20.687l32.18,-0l0,92.108l25.618,-0l-0,-92.108Z" style="fill:#fff;"/></svg>