<?xml version="1.0" encoding="UTF-8" standalone="no"?><!DOCTYPE svg PUBLIC "-//W3C//DTD SVG 1.1//EN" "http://www.w3.org/Graphics/SVG/1.1/DTD/svg11.dtd"><svg width="100%" height="100%" viewBox="0 0 106 106" version="1.1" xmlns="http://www.w3.org/2000/svg" xmlns:xlink="http://www.w3.org/1999/xlink" xml:space="preserve" xmlns:serif="http://www.serif.com/" style="fill-rule:evenodd;clip-rule:evenodd;stroke-linejoin:round;stroke-miterlimit:2;"><g id="icon"><path d="M28.683,0.285c0.344,-0.269 0.555,-0.295 0.961,-0.283l0.002,0l74.445,0l0.012,0.002c0.04,0.001 0.081,0.002 0.124,0.003c0.44,0.052 0.555,0.12 0.767,0.25c0.274,0.167 0.485,0.417 0.622,0.704c0.022,0.033 0.046,0.07 0.072,0.108l0.035,0.173c0.03,0.105 0.052,0.213 0.064,0.322l0.033,0.167l0,74.445l-0.025,0.126c-0.009,0.171 -0.041,0.342 -0.1,0.504l-0.007,0.032l-0.014,0.02c-0.047,0.117 -0.108,0.23 -0.184,0.334c-0.071,0.098 -0.095,0.118 -0.177,0.207l-27.916,27.916c-0.133,0.123 -0.282,0.221 -0.442,0.295c-0.037,0.025 -0.076,0.052 -0.119,0.08l-0.662,0.132l-74.445,0l-0.662,-0.132c-0.187,-0.125 -0.402,-0.216 -0.561,-0.375c-0.305,-0.305 -0.375,-0.501 -0.429,-0.785c-0.045,-0.135 -0.072,-0.279 -0.075,-0.429l-0.002,-0.008l0,-74.445l0,0c0,-0.453 0.196,-0.887 0.506,-1.223l27.917,-27.917l0,0c0.096,-0.095 0.18,-0.167 0.26,-0.223Zm45.762,77.62l-44.083,0l-24.459,24.459l68.542,0l0,-24.459Zm3.458,0l0,22.013l22.013,-22.013l-22.013,0Zm-74.445,-9.306l0,31.319l24.459,-24.458l0,-6.861l-24.459,0Zm70.987,5.848l0,-5.848l-43.07,0l0,5.848l43.07,0Zm27.917,-31.319l-24.459,24.459l0,6.86l24.459,0l0,-31.319Zm-70.987,-2.445l0,24.458l43.07,0l0,-24.458l-43.07,0Zm-25.472,24.458l22.014,0l0,-22.013l-22.014,22.013Zm72,-24.458l0,22.013l22.013,-22.013l-22.013,0Zm-74.445,-9.306l0,31.319l24.459,-24.459l0,-6.86l-24.459,0Zm27.917,0l0,5.847l43.07,0l0,-5.847l-43.07,0Zm46.528,-1.013l0,6.86l24.459,0l0,-31.319l-24.459,24.459Zm-72,-2.445l22.014,0l0,-22.014l-22.014,22.014Zm25.472,-24.459l0,24.459l44.083,0l24.458,-24.459l-68.541,0Z" style="fill:#43515f;"/></g></svg>