<?xml version="1.0" encoding="UTF-8" standalone="no"?>
<!DOCTYPE svg PUBLIC "-//W3C//DTD SVG 1.1//EN" "http://www.w3.org/Graphics/SVG/1.1/DTD/svg11.dtd">
<svg width="100%" height="100%" viewBox="0 0 383 383" version="1.1" xmlns="http://www.w3.org/2000/svg" xmlns:xlink="http://www.w3.org/1999/xlink" xml:space="preserve" xmlns:serif="http://www.serif.com/" style="fill-rule:evenodd;clip-rule:evenodd;stroke-linejoin:round;stroke-miterlimit:2;">
    <g transform="matrix(1,0,0,1,-1151.51,-1001.83)">
        <g>
            <g>
                <path d="M1527.76,1001.83L1528.8,1001.91L1529.58,1002.1L1530.16,1002.31C1530.89,1002.61 1531.58,1003.06 1532.18,1003.66C1532.78,1004.25 1533.23,1004.94 1533.53,1005.68L1533.54,1005.69C1533.84,1006.43 1534.01,1007.23 1534.01,1008.07L1534.01,1277.17L1533.94,1278.13L1533.71,1279.1L1533.53,1279.57C1533.23,1280.3 1532.78,1280.99 1532.18,1281.59L1431.27,1382.5C1430.67,1383.09 1429.99,1383.54 1429.25,1383.85L1429.23,1383.86C1428.5,1384.16 1427.69,1384.33 1426.85,1384.33L1157.76,1384.33L1156.77,1384.25L1156.5,1384.2C1156.11,1384.12 1155.74,1384.01 1155.38,1383.86L1155.36,1383.85C1154.62,1383.54 1153.94,1383.09 1153.34,1382.5C1152.74,1381.9 1152.29,1381.21 1151.99,1380.48L1151.98,1380.46C1151.68,1379.73 1151.51,1378.92 1151.51,1378.08L1151.51,1108.99L1151.59,1107.99L1151.84,1106.98L1151.99,1106.59C1152.29,1105.85 1152.74,1105.16 1153.34,1104.57L1254.25,1003.66C1254.85,1003.06 1255.53,1002.61 1256.27,1002.31L1256.29,1002.3C1257.02,1002 1257.83,1001.83 1258.67,1001.83L1527.76,1001.83ZM1261.26,1283.42L1172.85,1371.83L1420.6,1371.83L1420.6,1283.42L1261.26,1283.42ZM1433.1,1283.42L1433.1,1362.99L1512.67,1283.42L1433.1,1283.42ZM1264.92,1249.78L1264.92,1270.92L1420.6,1270.92L1420.6,1249.78L1264.92,1249.78ZM1433.1,1246.12L1433.1,1136.37L1420.6,1136.37L1420.6,1249.78L1433.1,1249.78L1433.1,1270.92L1521.51,1270.92L1521.51,1157.71L1433.1,1246.12ZM1172.85,1237.28L1252.42,1237.28L1252.42,1157.71L1172.85,1237.28ZM1264.92,1115.24L1264.92,1136.37L1420.6,1136.37L1420.6,1115.24L1264.92,1115.24ZM1433.1,1111.58L1433.1,1136.37L1521.51,1136.37L1521.51,1023.17L1433.1,1111.58ZM1172.85,1102.74L1252.42,1102.74L1252.42,1023.17L1172.85,1102.74Z" style="fill:rgb(254,254,254);"/>
            </g>
        </g>
    </g>
</svg>
