<?xml version="1.0" encoding="UTF-8" standalone="no"?>
<!DOCTYPE svg PUBLIC "-//W3C//DTD SVG 1.1//EN" "http://www.w3.org/Graphics/SVG/1.1/DTD/svg11.dtd">
<svg width="100%" height="100%" viewBox="0 0 374 60" version="1.1" xmlns="http://www.w3.org/2000/svg" xmlns:xlink="http://www.w3.org/1999/xlink" xml:space="preserve" xmlns:serif="http://www.serif.com/" style="fill-rule:evenodd;clip-rule:evenodd;stroke-linejoin:round;stroke-miterlimit:2;">
    <g id="typography">
        <path id="F" d="M0.48,59.2C0.353,59.2 0.231,59.149 0.141,59.059C0.051,58.969 -0,58.847 -0,58.72L-0,1.04C-0,0.913 0.051,0.791 0.141,0.701C0.231,0.611 0.353,0.56 0.48,0.56L45.012,0.56C45.277,0.56 45.492,0.775 45.492,1.04L45.492,8.32C45.492,8.585 45.277,8.8 45.012,8.8L9.04,8.8C8.775,8.8 8.56,9.015 8.56,9.28L8.56,28.32C8.56,28.585 8.775,28.8 9.04,28.8L41.258,28.8C41.385,28.8 41.507,28.851 41.597,28.941C41.687,29.031 41.738,29.153 41.738,29.28L41.738,36.32C41.738,36.447 41.687,36.569 41.597,36.659C41.507,36.749 41.385,36.8 41.258,36.8L9.04,36.8C8.775,36.8 8.56,37.015 8.56,37.28L8.56,58.72C8.56,58.847 8.509,58.969 8.419,59.059C8.329,59.149 8.207,59.2 8.08,59.2L0.48,59.2Z" style="fill:rgb(254,254,254);fill-rule:nonzero;"/>
        <path id="L" d="M63.736,0.48C63.863,0.48 63.985,0.531 64.075,0.621C64.165,0.711 64.216,0.833 64.216,0.96L64.216,50.32C64.216,50.447 64.266,50.569 64.356,50.659C64.446,50.749 64.569,50.8 64.696,50.8L98.988,50.8C99.253,50.8 99.468,51.015 99.468,51.28L99.468,58.72C99.468,58.847 99.417,58.969 99.327,59.059C99.237,59.149 99.115,59.2 98.988,59.2L56.136,59.2C56.009,59.2 55.886,59.149 55.796,59.059C55.706,58.969 55.656,58.847 55.656,58.72L55.656,0.96C55.656,0.833 55.706,0.711 55.796,0.621C55.886,0.531 56.009,0.48 56.136,0.48L63.736,0.48Z" style="fill:rgb(254,254,254);fill-rule:nonzero;"/>
        <path id="A" d="M108.415,59.12C108.255,59.12 108.106,59.041 108.017,58.908C107.929,58.776 107.911,58.608 107.972,58.46C110.375,52.569 128.135,9.029 131.179,1.567C131.253,1.387 131.428,1.269 131.622,1.269C131.817,1.269 131.992,1.387 132.066,1.567C135.11,9.029 152.87,52.569 155.273,58.46C155.334,58.608 155.316,58.776 155.227,58.908C155.138,59.041 154.989,59.12 154.83,59.12L147.153,59.12C146.954,59.12 146.776,58.997 146.705,58.811C146.385,57.967 145.5,55.633 145.18,54.789C145.109,54.603 144.931,54.48 144.732,54.48L118.588,54.48C118.391,54.48 118.215,54.6 118.143,54.782C117.809,55.622 116.875,57.978 116.542,58.818C116.47,59 116.294,59.12 116.097,59.12L108.415,59.12ZM121.397,46.387C121.339,46.535 121.358,46.701 121.448,46.831C121.537,46.962 121.685,47.04 121.843,47.04L141.402,47.04C141.56,47.04 141.708,46.962 141.797,46.831C141.886,46.701 141.905,46.535 141.848,46.387C140.465,42.841 133.855,25.887 132.069,21.304C131.997,21.12 131.82,20.999 131.622,20.999C131.425,20.999 131.248,21.12 131.176,21.304C129.389,25.887 122.779,42.841 121.397,46.387Z" style="fill:rgb(254,254,254);fill-rule:nonzero;"/>
        <path id="T" d="M155.782,8.64C155.517,8.64 155.302,8.425 155.302,8.16L155.302,0.96C155.302,0.833 155.353,0.711 155.443,0.621C155.533,0.531 155.655,0.48 155.782,0.48L205.99,0.48C206.118,0.48 206.24,0.531 206.33,0.621C206.42,0.711 206.47,0.833 206.47,0.96L206.47,8.16C206.47,8.425 206.256,8.64 205.99,8.64L185.606,8.64C185.479,8.64 185.357,8.691 185.267,8.781C185.177,8.871 185.126,8.993 185.126,9.12L185.126,58.56C185.126,58.825 184.912,59.04 184.646,59.04L177.126,59.04C176.861,59.04 176.646,58.825 176.646,58.56L176.646,9.12C176.646,8.993 176.596,8.871 176.506,8.781C176.416,8.691 176.294,8.64 176.166,8.64L155.782,8.64Z" style="fill:rgb(254,254,254);fill-rule:nonzero;"/>
        <path id="P" d="M257.915,18.88C257.968,19.2 258.008,19.52 258.035,19.84L258.075,21.04C258.075,21.413 258.061,21.76 258.035,22.08C258.008,22.4 257.968,22.72 257.915,23.04L257.915,23.12L257.675,25.04C257.621,25.093 257.595,25.2 257.595,25.36C257.541,25.627 257.488,25.867 257.435,26.08C257.381,26.293 257.301,26.533 257.195,26.8C256.448,29.253 255.341,31.44 253.875,33.36C252.408,35.28 250.635,36.907 248.555,38.24C246.795,39.307 244.848,40.147 242.715,40.76C240.581,41.373 238.315,41.68 235.915,41.68L225.915,41.68C225.787,41.68 225.665,41.731 225.575,41.821C225.485,41.911 225.435,42.033 225.435,42.16L225.435,58.56C225.435,58.687 225.384,58.809 225.294,58.899C225.204,58.989 225.082,59.04 224.955,59.04L217.355,59.04C217.227,59.04 217.105,58.989 217.015,58.899C216.925,58.809 216.875,58.687 216.875,58.56L216.875,0.72C216.875,0.455 217.089,0.24 217.355,0.24L235.915,0.24C240.715,0.24 244.928,1.387 248.555,3.68C250.635,5.013 252.408,6.64 253.875,8.56C255.341,10.48 256.448,12.64 257.195,15.04C257.408,15.627 257.541,16.133 257.595,16.56C257.595,16.72 257.621,16.827 257.675,16.88L257.915,18.72L257.915,18.88ZM236.955,34.16C238.715,34.16 240.328,33.787 241.795,33.04C243.261,32.293 244.541,31.307 245.635,30.08C246.728,28.853 247.581,27.453 248.195,25.88C248.808,24.307 249.115,22.667 249.115,20.96C249.115,19.253 248.808,17.613 248.195,16.04C247.581,14.467 246.728,13.067 245.635,11.84C244.541,10.613 243.261,9.627 241.795,8.88C240.328,8.133 238.715,7.76 236.955,7.76L225.995,7.76C225.729,7.76 225.515,7.975 225.515,8.24L225.515,33.68C225.515,33.945 225.729,34.16 225.995,34.16L236.955,34.16Z" style="fill:rgb(254,254,254);fill-rule:nonzero;"/>
        <path id="A2" d="M260.479,58.88C260.479,58.88 280.685,9.345 283.954,1.33C284.028,1.149 284.204,1.031 284.399,1.031C284.594,1.031 284.769,1.149 284.843,1.33C287.89,8.799 305.643,52.322 308.049,58.219C308.109,58.367 308.092,58.535 308.003,58.668C307.914,58.8 307.764,58.88 307.604,58.88L299.93,58.88C299.731,58.88 299.552,58.757 299.481,58.57C299.161,57.726 298.276,55.394 297.956,54.55C297.885,54.363 297.707,54.24 297.507,54.24L271.365,54.24C271.168,54.24 270.991,54.36 270.919,54.543C270.585,55.383 269.652,57.737 269.319,58.577C269.246,58.76 269.069,58.88 268.873,58.88L260.479,58.88ZM274.174,46.146C274.116,46.293 274.135,46.46 274.225,46.591C274.314,46.722 274.462,46.8 274.621,46.8L294.176,46.8C294.335,46.8 294.483,46.722 294.573,46.591C294.662,46.46 294.681,46.293 294.624,46.146C293.24,42.597 286.634,25.654 284.846,21.067C284.774,20.883 284.597,20.761 284.399,20.761C284.201,20.761 284.023,20.883 283.951,21.067C282.163,25.654 275.557,42.597 274.174,46.146Z" style="fill:rgb(254,254,254);fill-rule:nonzero;"/>
        <path id="Q" d="M344.074,0C348.127,0 351.94,0.773 355.514,2.32C359.087,3.867 362.194,5.973 364.834,8.64C367.474,11.307 369.554,14.44 371.074,18.04C372.594,21.64 373.354,25.493 373.354,29.6C373.354,33.653 372.594,37.467 371.074,41.04C369.554,44.613 367.474,47.733 364.834,50.4C362.194,53.067 359.087,55.173 355.514,56.72C351.94,58.267 348.127,59.04 344.074,59.04C340.02,59.04 336.22,58.267 332.674,56.72C329.127,55.173 326.034,53.067 323.394,50.4C320.754,47.733 318.674,44.613 317.154,41.04C315.634,37.467 314.874,33.653 314.874,29.6C314.874,25.493 315.634,21.64 317.154,18.04C318.674,14.44 320.754,11.307 323.394,8.64C326.034,5.973 329.127,3.867 332.674,2.32C336.22,0.773 340.02,-0 344.074,-0ZM361.302,39.59C361.411,39.699 361.565,39.749 361.717,39.725C361.869,39.7 362,39.605 362.07,39.467C362.328,38.953 362.569,38.424 362.794,37.88C363.86,35.293 364.394,32.533 364.394,29.6C364.394,26.667 363.86,23.893 362.794,21.28C361.727,18.667 360.274,16.387 358.434,14.44C356.594,12.493 354.434,10.96 351.954,9.84C349.474,8.72 346.847,8.16 344.074,8.16C341.3,8.16 338.687,8.72 336.234,9.84C333.78,10.96 331.634,12.493 329.794,14.44C327.954,16.387 326.5,18.667 325.434,21.28C324.367,23.893 323.834,26.667 323.834,29.6C323.834,32.533 324.367,35.293 325.434,37.88C326.5,40.467 327.954,42.72 329.794,44.64C331.634,46.56 333.78,48.08 336.234,49.2C338.687,50.32 341.3,50.88 344.074,50.88C346.847,50.88 349.474,50.32 351.954,49.2C353.358,48.566 354.659,47.804 355.858,46.913C355.969,46.83 356.039,46.702 356.048,46.563C356.058,46.425 356.007,46.289 355.909,46.19C353.852,44.133 344.232,34.512 342.297,32.578C342.109,32.39 342.109,32.086 342.297,31.899C343.351,30.845 346.56,27.635 347.614,26.581C347.704,26.491 347.826,26.441 347.954,26.441C348.081,26.441 348.203,26.491 348.293,26.581C350.158,28.446 359.152,37.44 361.302,39.59Z" style="fill:rgb(254,254,254);fill-rule:nonzero;"/>
    </g>
</svg>
