<?xml version="1.0" encoding="UTF-8" standalone="no"?><!DOCTYPE svg PUBLIC "-//W3C//DTD SVG 1.1//EN" "http://www.w3.org/Graphics/SVG/1.1/DTD/svg11.dtd"><svg width="100%" height="100%" viewBox="0 0 374 60" version="1.1" xmlns="http://www.w3.org/2000/svg" xmlns:xlink="http://www.w3.org/1999/xlink" xml:space="preserve" xmlns:serif="http://www.serif.com/" style="fill-rule:evenodd;clip-rule:evenodd;stroke-linejoin:round;stroke-miterlimit:2;"><g id="typography"><path id="F" d="M0.48,59.2c-0.127,0 -0.249,-0.051 -0.339,-0.141c-0.09,-0.09 -0.141,-0.212 -0.141,-0.339l0,-57.68c0,-0.127 0.051,-0.249 0.141,-0.339c0.09,-0.09 0.212,-0.141 0.339,-0.141l44.532,0c0.265,0 0.48,0.215 0.48,0.48l0,7.28c0,0.265 -0.215,0.48 -0.48,0.48l-35.972,0c-0.265,0 -0.48,0.215 -0.48,0.48l0,19.04c0,0.265 0.215,0.48 0.48,0.48l32.218,0c0.127,0 0.249,0.051 0.339,0.141c0.09,0.09 0.141,0.212 0.141,0.339l0,7.04c0,0.127 -0.051,0.249 -0.141,0.339c-0.09,0.09 -0.212,0.141 -0.339,0.141l-32.218,0c-0.265,0 -0.48,0.215 -0.48,0.48l0,21.44c0,0.127 -0.051,0.249 -0.141,0.339c-0.09,0.09 -0.212,0.141 -0.339,0.141l-7.6,0Z" style="fill:#f3f0e5;fill-rule:nonzero;"/><path id="L" d="M63.736,0.48c0.127,0 0.249,0.051 0.339,0.141c0.09,0.09 0.141,0.212 0.141,0.339l0,49.36c0,0.127 0.05,0.249 0.14,0.339c0.09,0.09 0.213,0.141 0.34,0.141l34.292,0c0.265,0 0.48,0.215 0.48,0.48l0,7.44c0,0.127 -0.051,0.249 -0.141,0.339c-0.09,0.09 -0.212,0.141 -0.339,0.141l-42.852,0c-0.127,0 -0.25,-0.051 -0.34,-0.141c-0.09,-0.09 -0.14,-0.212 -0.14,-0.339l0,-57.76c0,-0.127 0.05,-0.249 0.14,-0.339c0.09,-0.09 0.213,-0.141 0.34,-0.141l7.6,0Z" style="fill:#f3f0e5;fill-rule:nonzero;"/><path id="A" d="M108.415,59.12c-0.16,0 -0.309,-0.079 -0.398,-0.212c-0.088,-0.132 -0.106,-0.3 -0.045,-0.448c2.403,-5.891 20.163,-49.431 23.207,-56.893c0.074,-0.18 0.249,-0.298 0.443,-0.298c0.195,0 0.37,0.118 0.444,0.298c3.044,7.462 20.804,51.002 23.207,56.893c0.061,0.148 0.043,0.316 -0.046,0.448c-0.089,0.133 -0.238,0.212 -0.397,0.212l-7.677,0c-0.199,0 -0.377,-0.123 -0.448,-0.309c-0.32,-0.844 -1.205,-3.178 -1.525,-4.022c-0.071,-0.186 -0.249,-0.309 -0.448,-0.309l-26.144,0c-0.197,0 -0.373,0.12 -0.445,0.302c-0.334,0.84 -1.268,3.196 -1.601,4.036c-0.072,0.182 -0.248,0.302 -0.445,0.302l-7.682,0Zm12.982,-12.733c-0.058,0.148 -0.039,0.314 0.051,0.444c0.089,0.131 0.237,0.209 0.395,0.209l19.559,0c0.158,0 0.306,-0.078 0.395,-0.209c0.089,-0.13 0.108,-0.296 0.051,-0.444c-1.383,-3.546 -7.993,-20.5 -9.779,-25.083c-0.072,-0.184 -0.249,-0.305 -0.447,-0.305c-0.197,0 -0.374,0.121 -0.446,0.305c-1.787,4.583 -8.397,21.537 -9.779,25.083Z" style="fill:#f3f0e5;fill-rule:nonzero;"/><path id="T" d="M155.782,8.64c-0.265,0 -0.48,-0.215 -0.48,-0.48l0,-7.2c0,-0.127 0.051,-0.249 0.141,-0.339c0.09,-0.09 0.212,-0.141 0.339,-0.141l50.208,0c0.128,0 0.25,0.051 0.34,0.141c0.09,0.09 0.14,0.212 0.14,0.339l0,7.2c0,0.265 -0.214,0.48 -0.48,0.48l-20.384,0c-0.127,0 -0.249,0.051 -0.339,0.141c-0.09,0.09 -0.141,0.212 -0.141,0.339l0,49.44c0,0.265 -0.214,0.48 -0.48,0.48l-7.52,0c-0.265,0 -0.48,-0.215 -0.48,-0.48l0,-49.44c0,-0.127 -0.05,-0.249 -0.14,-0.339c-0.09,-0.09 -0.212,-0.141 -0.34,-0.141l-20.384,0Z" style="fill:#f3f0e5;fill-rule:nonzero;"/><path id="P" d="M257.915,18.88c0.053,0.32 0.093,0.64 0.12,0.96l0.04,1.2c0,0.373 -0.014,0.72 -0.04,1.04c-0.027,0.32 -0.067,0.64 -0.12,0.96l0,0.08l-0.24,1.92c-0.054,0.053 -0.08,0.16 -0.08,0.32c-0.054,0.267 -0.107,0.507 -0.16,0.72c-0.054,0.213 -0.134,0.453 -0.24,0.72c-0.747,2.453 -1.854,4.64 -3.32,6.56c-1.467,1.92 -3.24,3.547 -5.32,4.88c-1.76,1.067 -3.707,1.907 -5.84,2.52c-2.134,0.613 -4.4,0.92 -6.8,0.92l-10,0c-0.128,0 -0.25,0.051 -0.34,0.141c-0.09,0.09 -0.14,0.212 -0.14,0.339l0,16.4c0,0.127 -0.051,0.249 -0.141,0.339c-0.09,0.09 -0.212,0.141 -0.339,0.141l-7.6,0c-0.128,0 -0.25,-0.051 -0.34,-0.141c-0.09,-0.09 -0.14,-0.212 -0.14,-0.339l0,-57.84c0,-0.265 0.214,-0.48 0.48,-0.48l18.56,0c4.8,0 9.013,1.147 12.64,3.44c2.08,1.333 3.853,2.96 5.32,4.88c1.466,1.92 2.573,4.08 3.32,6.48c0.213,0.587 0.346,1.093 0.4,1.52c0,0.16 0.026,0.267 0.08,0.32l0.24,1.84l0,0.16Zm-20.96,15.28c1.76,0 3.373,-0.373 4.84,-1.12c1.466,-0.747 2.746,-1.733 3.84,-2.96c1.093,-1.227 1.946,-2.627 2.56,-4.2c0.613,-1.573 0.92,-3.213 0.92,-4.92c0,-1.707 -0.307,-3.347 -0.92,-4.92c-0.614,-1.573 -1.467,-2.973 -2.56,-4.2c-1.094,-1.227 -2.374,-2.213 -3.84,-2.96c-1.467,-0.747 -3.08,-1.12 -4.84,-1.12l-10.96,0c-0.266,0 -0.48,0.215 -0.48,0.48l0,25.44c0,0.265 0.214,0.48 0.48,0.48l10.96,0Z" style="fill:#f3f0e5;fill-rule:nonzero;"/><path id="A2" d="M260.479,58.88c0,0 20.206,-49.535 23.475,-57.55c0.074,-0.181 0.25,-0.299 0.445,-0.299c0.195,0 0.37,0.118 0.444,0.299c3.047,7.469 20.8,50.992 23.206,56.889c0.06,0.148 0.043,0.316 -0.046,0.449c-0.089,0.132 -0.239,0.212 -0.399,0.212l-7.674,0c-0.199,0 -0.378,-0.123 -0.449,-0.31c-0.32,-0.844 -1.205,-3.176 -1.525,-4.02c-0.071,-0.187 -0.249,-0.31 -0.449,-0.31l-26.142,0c-0.197,0 -0.374,0.12 -0.446,0.303c-0.334,0.84 -1.267,3.194 -1.6,4.034c-0.073,0.183 -0.25,0.303 -0.446,0.303l-8.394,0Zm13.695,-12.734c-0.058,0.147 -0.039,0.314 0.051,0.445c0.089,0.131 0.237,0.209 0.396,0.209l19.555,0c0.159,0 0.307,-0.078 0.397,-0.209c0.089,-0.131 0.108,-0.298 0.051,-0.445c-1.384,-3.549 -7.99,-20.492 -9.778,-25.079c-0.072,-0.184 -0.249,-0.306 -0.447,-0.306c-0.198,0 -0.376,0.122 -0.448,0.306c-1.788,4.587 -8.394,21.53 -9.777,25.079Z" style="fill:#f3f0e5;fill-rule:nonzero;"/><path id="Q" d="M344.074,0c4.053,0 7.866,0.773 11.44,2.32c3.573,1.547 6.68,3.653 9.32,6.32c2.64,2.667 4.72,5.8 6.24,9.4c1.52,3.6 2.28,7.453 2.28,11.56c0,4.053 -0.76,7.867 -2.28,11.44c-1.52,3.573 -3.6,6.693 -6.24,9.36c-2.64,2.667 -5.747,4.773 -9.32,6.32c-3.574,1.547 -7.387,2.32 -11.44,2.32c-4.054,0 -7.854,-0.773 -11.4,-2.32c-3.547,-1.547 -6.64,-3.653 -9.28,-6.32c-2.64,-2.667 -4.72,-5.787 -6.24,-9.36c-1.52,-3.573 -2.28,-7.387 -2.28,-11.44c0,-4.107 0.76,-7.96 2.28,-11.56c1.52,-3.6 3.6,-6.733 6.24,-9.4c2.64,-2.667 5.733,-4.773 9.28,-6.32c3.546,-1.547 7.346,-2.32 11.4,-2.32Zm17.228,39.59c0.109,0.109 0.263,0.159 0.415,0.135c0.152,-0.025 0.283,-0.12 0.353,-0.258c0.258,-0.514 0.499,-1.043 0.724,-1.587c1.066,-2.587 1.6,-5.347 1.6,-8.28c0,-2.933 -0.534,-5.707 -1.6,-8.32c-1.067,-2.613 -2.52,-4.893 -4.36,-6.84c-1.84,-1.947 -4,-3.48 -6.48,-4.6c-2.48,-1.12 -5.107,-1.68 -7.88,-1.68c-2.774,0 -5.387,0.56 -7.84,1.68c-2.454,1.12 -4.6,2.653 -6.44,4.6c-1.84,1.947 -3.294,4.227 -4.36,6.84c-1.067,2.613 -1.6,5.387 -1.6,8.32c0,2.933 0.533,5.693 1.6,8.28c1.066,2.587 2.52,4.84 4.36,6.76c1.84,1.92 3.986,3.44 6.44,4.56c2.453,1.12 5.066,1.68 7.84,1.68c2.773,0 5.4,-0.56 7.88,-1.68c1.404,-0.634 2.705,-1.396 3.904,-2.287c0.111,-0.083 0.181,-0.211 0.19,-0.35c0.01,-0.138 -0.041,-0.274 -0.139,-0.373c-2.057,-2.057 -11.677,-11.678 -13.612,-13.612c-0.188,-0.188 -0.188,-0.492 0,-0.679c1.054,-1.054 4.263,-4.264 5.317,-5.318c0.09,-0.09 0.212,-0.14 0.34,-0.14c0.127,0 0.249,0.05 0.339,0.14c1.865,1.865 10.859,10.859 13.009,13.009Z" style="fill:#f3f0e5;fill-rule:nonzero;"/></g></svg>