<?xml version="1.0" encoding="UTF-8" standalone="no"?><!DOCTYPE svg PUBLIC "-//W3C//DTD SVG 1.1//EN" "http://www.w3.org/Graphics/SVG/1.1/DTD/svg11.dtd"><svg width="100%" height="100%" viewBox="0 0 800 400" version="1.1" xmlns="http://www.w3.org/2000/svg" xmlns:xlink="http://www.w3.org/1999/xlink" xml:space="preserve" xmlns:serif="http://www.serif.com/" style="fill-rule:evenodd;clip-rule:evenodd;stroke-linejoin:round;stroke-miterlimit:2;"><rect id="background" x="0" y="0" width="800" height="400" style="fill:#fefefe;"/><g id="objects"><path d="M259.953,243.791l-6.312,0l-0,-56.287l-20.779,-0l-0,-5.787l47.87,0l0,5.787l-20.779,-0l0,56.287Z" style="fill:#34475a;fill-rule:nonzero;"/><path d="M291.165,236.689l12.538,-33.93l7.014,0l-20.516,51.728c-1.227,3.157 -2.791,5.67 -4.691,7.54c-1.899,1.871 -4.632,2.806 -8.197,2.806c-0.877,-0 -1.768,-0.029 -2.674,-0.088c-0.906,-0.058 -1.798,-0.233 -2.674,-0.526l0.613,-5.611c1.228,0.643 2.689,0.964 4.384,0.964c2.046,0 3.653,-0.642 4.822,-1.928c1.169,-1.286 2.192,-3.098 3.069,-5.436l2.981,-7.891l-16.834,-41.558l7.277,0l12.888,33.93Z" style="fill:#34475a;fill-rule:nonzero;"/><path d="M355.606,223.275c0,-2.279 -0.365,-4.413 -1.096,-6.4c-0.73,-1.987 -1.768,-3.712 -3.112,-5.173c-1.344,-1.461 -2.966,-2.616 -4.866,-3.463c-1.9,-0.848 -4.048,-1.271 -6.444,-1.271c-2.396,-0 -4.588,0.423 -6.576,1.271c-1.987,0.847 -3.711,2.002 -5.172,3.463c-1.462,1.461 -2.601,3.186 -3.42,5.173c-0.818,1.987 -1.227,4.121 -1.227,6.4c-0,2.28 0.409,4.413 1.227,6.4c0.819,1.988 1.958,3.712 3.42,5.173c1.461,1.461 3.185,2.616 5.172,3.463c1.988,0.848 4.18,1.272 6.576,1.272c2.396,-0 4.544,-0.424 6.444,-1.272c1.9,-0.847 3.522,-2.002 4.866,-3.463c1.344,-1.461 2.382,-3.185 3.112,-5.173c0.731,-1.987 1.096,-4.12 1.096,-6.4Zm-37.437,-20.516l5.787,0l-0,6.839l0.175,-0c0.935,-1.403 2.046,-2.601 3.332,-3.595c1.286,-0.994 2.63,-1.812 4.033,-2.455c1.403,-0.643 2.849,-1.11 4.34,-1.403c1.49,-0.292 2.908,-0.438 4.252,-0.438c3.215,0 6.152,0.541 8.811,1.622c2.66,1.081 4.954,2.586 6.883,4.515c1.929,1.929 3.434,4.209 4.515,6.839c1.081,2.63 1.622,5.494 1.622,8.592c0,3.098 -0.541,5.962 -1.622,8.592c-1.081,2.63 -2.586,4.91 -4.515,6.839c-1.929,1.929 -4.223,3.434 -6.883,4.515c-2.659,1.081 -5.596,1.622 -8.811,1.622c-1.344,0 -2.762,-0.146 -4.252,-0.438c-1.491,-0.293 -2.937,-0.76 -4.34,-1.403c-1.403,-0.643 -2.747,-1.461 -4.033,-2.455c-1.286,-0.994 -2.397,-2.192 -3.332,-3.595l-0.175,0l-0,32.089l-5.787,0l0,-66.282Z" style="fill:#34475a;fill-rule:nonzero;"/><path d="M380.155,186.978c0,1.227 -0.438,2.235 -1.315,3.024c-0.876,0.79 -1.841,1.184 -2.893,1.184c-1.052,0 -2.017,-0.394 -2.893,-1.184c-0.877,-0.789 -1.315,-1.797 -1.315,-3.024c-0,-1.228 0.438,-2.236 1.315,-3.025c0.876,-0.789 1.841,-1.184 2.893,-1.184c1.052,0 2.017,0.395 2.893,1.184c0.877,0.789 1.315,1.797 1.315,3.025Zm-1.315,56.813l-5.786,0l-0,-41.032l5.786,0l0,41.032Z" style="fill:#34475a;fill-rule:nonzero;"/><path d="M398.304,202.759c0.117,1.111 0.19,2.207 0.219,3.288c0.029,1.081 0.044,2.177 0.044,3.288l0.175,-0c0.643,-1.111 1.462,-2.134 2.455,-3.069c0.994,-0.935 2.105,-1.739 3.332,-2.411c1.227,-0.672 2.528,-1.198 3.902,-1.578c1.373,-0.38 2.732,-0.57 4.076,-0.57c5.261,0 9.148,1.388 11.661,4.165c2.514,2.776 3.77,6.736 3.77,11.88l0,26.039l-5.786,0l-0,-22.708c-0,-4.559 -0.789,-8.051 -2.368,-10.477c-1.578,-2.426 -4.5,-3.638 -8.767,-3.638c-0.292,-0 -1.111,0.116 -2.455,0.35c-1.344,0.234 -2.762,0.877 -4.252,1.929c-1.491,1.052 -2.82,2.63 -3.989,4.735c-1.169,2.104 -1.754,5.026 -1.754,8.767l0,21.042l-5.786,0l-0,-32.001c-0,-1.111 -0.044,-2.514 -0.132,-4.209c-0.088,-1.695 -0.19,-3.302 -0.307,-4.822l5.962,0Z" style="fill:#34475a;fill-rule:nonzero;"/><path d="M445.737,222.749c0,2.163 0.395,4.194 1.184,6.093c0.789,1.9 1.87,3.566 3.244,4.998c1.373,1.432 2.981,2.572 4.822,3.419c1.841,0.848 3.843,1.272 6.005,1.272c2.105,-0 4.107,-0.38 6.006,-1.14c1.9,-0.76 3.58,-1.827 5.042,-3.2c1.461,-1.374 2.586,-3.025 3.375,-4.954c0.789,-1.929 1.154,-4.092 1.096,-6.488c-0,-2.163 -0.351,-4.194 -1.052,-6.093c-0.702,-1.9 -1.724,-3.566 -3.069,-4.998c-1.344,-1.432 -2.981,-2.572 -4.91,-3.419c-1.928,-0.848 -4.091,-1.271 -6.488,-1.271c-2.162,-0 -4.164,0.423 -6.005,1.271c-1.841,0.847 -3.449,1.987 -4.822,3.419c-1.374,1.432 -2.455,3.098 -3.244,4.998c-0.789,1.899 -1.184,3.93 -1.184,6.093Zm-1.052,29.283c1.695,2.28 3.901,4.107 6.619,5.48c2.718,1.374 5.743,2.06 9.075,2.06c2.922,0 5.406,-0.423 7.452,-1.271c2.046,-0.847 3.697,-2.002 4.954,-3.463c1.256,-1.461 2.162,-3.171 2.718,-5.129c0.555,-1.958 0.833,-4.048 0.833,-6.269l-0,-7.364l-0.176,-0c-1.87,2.805 -4.15,4.793 -6.838,5.962c-2.689,1.169 -5.524,1.753 -8.505,1.753c-2.981,0 -5.772,-0.526 -8.373,-1.578c-2.601,-1.052 -4.866,-2.499 -6.795,-4.34c-1.928,-1.841 -3.448,-4.048 -4.559,-6.619c-1.11,-2.572 -1.666,-5.349 -1.666,-8.33c0,-2.981 0.527,-5.757 1.579,-8.329c1.052,-2.572 2.498,-4.822 4.34,-6.751c1.841,-1.929 4.033,-3.434 6.575,-4.515c2.543,-1.081 5.334,-1.622 8.373,-1.622c1.228,0 2.528,0.117 3.902,0.351c1.373,0.234 2.747,0.643 4.12,1.227c1.374,0.585 2.733,1.388 4.077,2.411c1.345,1.023 2.601,2.324 3.77,3.902l0.176,-0l-0,-6.839l5.786,0l0,40.681c0,2.221 -0.278,4.589 -0.833,7.102c-0.555,2.513 -1.636,4.822 -3.244,6.926c-1.607,2.104 -3.843,3.858 -6.707,5.261c-2.864,1.403 -6.605,2.104 -11.222,2.104c-4.092,-0 -7.745,-0.672 -10.96,-2.017c-3.214,-1.344 -6.137,-3.419 -8.767,-6.224l4.296,-4.56Z" style="fill:#34475a;fill-rule:nonzero;"/><path d="M514.211,208.02l-9.732,-0l0,35.771l-5.786,0l-0,-35.771l-8.68,-0l-0,-5.261l8.68,0l-0,-11.222c-0,-5.436 1.256,-9.308 3.77,-11.617c2.513,-2.309 5.845,-3.463 9.995,-3.463c0.818,-0 1.651,0.058 2.498,0.175c0.848,0.117 1.681,0.263 2.499,0.438l-1.052,5.261c-0.701,-0.175 -1.432,-0.322 -2.192,-0.438c-0.76,-0.117 -1.52,-0.176 -2.279,-0.176c-1.579,0 -2.864,0.263 -3.858,0.789c-0.994,0.526 -1.754,1.272 -2.28,2.236c-0.526,0.964 -0.876,2.09 -1.052,3.375c-0.175,1.286 -0.263,2.66 -0.263,4.121l0,10.521l9.732,0l0,5.261Z" style="fill:#34475a;fill-rule:nonzero;"/><path d="M556.207,223.275c0,-2.279 -0.365,-4.413 -1.096,-6.4c-0.73,-1.987 -1.768,-3.712 -3.112,-5.173c-1.344,-1.461 -2.966,-2.616 -4.866,-3.463c-1.9,-0.848 -4.048,-1.271 -6.444,-1.271c-2.397,-0 -4.545,0.423 -6.444,1.271c-1.9,0.847 -3.507,2.002 -4.822,3.463c-1.315,1.461 -2.338,3.186 -3.069,5.173c-0.731,1.987 -1.096,4.121 -1.096,6.4c0,2.28 0.365,4.413 1.096,6.4c0.731,1.988 1.754,3.712 3.069,5.173c1.315,1.461 2.922,2.616 4.822,3.463c1.899,0.848 4.047,1.272 6.444,1.272c2.396,-0 4.544,-0.424 6.444,-1.272c1.9,-0.847 3.522,-2.002 4.866,-3.463c1.344,-1.461 2.382,-3.185 3.112,-5.173c0.731,-1.987 1.096,-4.12 1.096,-6.4Zm6.313,0c-0,3.098 -0.541,5.962 -1.622,8.592c-1.081,2.63 -2.586,4.91 -4.515,6.839c-1.929,1.929 -4.223,3.434 -6.883,4.515c-2.659,1.081 -5.596,1.622 -8.811,1.622c-3.156,0 -6.064,-0.541 -8.724,-1.622c-2.659,-1.081 -4.953,-2.586 -6.882,-4.515c-1.929,-1.929 -3.434,-4.209 -4.515,-6.839c-1.082,-2.63 -1.622,-5.494 -1.622,-8.592c-0,-3.098 0.54,-5.962 1.622,-8.592c1.081,-2.63 2.586,-4.91 4.515,-6.839c1.929,-1.929 4.223,-3.434 6.882,-4.515c2.66,-1.081 5.568,-1.622 8.724,-1.622c3.215,0 6.152,0.541 8.811,1.622c2.66,1.081 4.954,2.586 6.883,4.515c1.929,1.929 3.434,4.209 4.515,6.839c1.081,2.63 1.622,5.494 1.622,8.592Z" style="fill:#34475a;fill-rule:nonzero;"/><path d="M573.655,215.56c-0,-1.812 -0.044,-3.653 -0.132,-5.524c-0.088,-1.87 -0.161,-4.296 -0.219,-7.277l5.699,0l-0,7.628l0.175,-0c0.409,-1.111 0.994,-2.177 1.754,-3.2c0.76,-1.023 1.68,-1.944 2.761,-2.762c1.082,-0.818 2.338,-1.476 3.77,-1.973c1.432,-0.497 3.054,-0.745 4.866,-0.745c1.637,0 3.069,0.175 4.296,0.526l-1.139,5.699c-0.76,-0.292 -1.871,-0.438 -3.332,-0.438c-2.221,-0 -4.121,0.423 -5.699,1.271c-1.578,0.847 -2.893,1.929 -3.945,3.244c-1.052,1.315 -1.827,2.732 -2.324,4.252c-0.496,1.52 -0.745,2.981 -0.745,4.384l0,23.146l-5.786,0l-0,-28.231Z" style="fill:#34475a;fill-rule:nonzero;"/><path d="M604.779,222.749c0,2.163 0.395,4.194 1.184,6.093c0.789,1.9 1.87,3.566 3.244,4.998c1.373,1.432 2.981,2.572 4.822,3.419c1.841,0.848 3.843,1.272 6.006,1.272c2.104,-0 4.106,-0.38 6.005,-1.14c1.9,-0.76 3.58,-1.827 5.042,-3.2c1.461,-1.374 2.586,-3.025 3.375,-4.954c0.789,-1.929 1.155,-4.092 1.096,-6.488c0,-2.163 -0.351,-4.194 -1.052,-6.093c-0.701,-1.9 -1.724,-3.566 -3.069,-4.998c-1.344,-1.432 -2.981,-2.572 -4.909,-3.419c-1.929,-0.848 -4.092,-1.271 -6.488,-1.271c-2.163,-0 -4.165,0.423 -6.006,1.271c-1.841,0.847 -3.449,1.987 -4.822,3.419c-1.374,1.432 -2.455,3.098 -3.244,4.998c-0.789,1.899 -1.184,3.93 -1.184,6.093Zm-1.052,29.283c1.695,2.28 3.902,4.107 6.62,5.48c2.718,1.374 5.742,2.06 9.074,2.06c2.922,0 5.407,-0.423 7.452,-1.271c2.046,-0.847 3.697,-2.002 4.954,-3.463c1.257,-1.461 2.163,-3.171 2.718,-5.129c0.555,-1.958 0.833,-4.048 0.833,-6.269l-0,-7.364l-0.176,-0c-1.87,2.805 -4.15,4.793 -6.838,5.962c-2.689,1.169 -5.524,1.753 -8.505,1.753c-2.981,0 -5.772,-0.526 -8.373,-1.578c-2.601,-1.052 -4.866,-2.499 -6.794,-4.34c-1.929,-1.841 -3.449,-4.048 -4.56,-6.619c-1.11,-2.572 -1.665,-5.349 -1.665,-8.33c-0,-2.981 0.526,-5.757 1.578,-8.329c1.052,-2.572 2.499,-4.822 4.34,-6.751c1.841,-1.929 4.033,-3.434 6.575,-4.515c2.543,-1.081 5.334,-1.622 8.373,-1.622c1.228,0 2.528,0.117 3.902,0.351c1.373,0.234 2.747,0.643 4.121,1.227c1.373,0.585 2.732,1.388 4.076,2.411c1.345,1.023 2.601,2.324 3.77,3.902l0.176,-0l-0,-6.839l5.786,0l0,40.681c0,2.221 -0.277,4.589 -0.833,7.102c-0.555,2.513 -1.636,4.822 -3.244,6.926c-1.607,2.104 -3.843,3.858 -6.707,5.261c-2.864,1.403 -6.605,2.104 -11.222,2.104c-4.092,-0 -7.745,-0.672 -10.959,-2.017c-3.215,-1.344 -6.138,-3.419 -8.768,-6.224l4.296,-4.56Z" style="fill:#34475a;fill-rule:nonzero;"/><path d="M686.054,220.119c-0,-3.916 -1.169,-7.087 -3.507,-9.513c-2.338,-2.426 -5.611,-3.638 -9.82,-3.638c-1.87,-0 -3.682,0.365 -5.436,1.096c-1.753,0.73 -3.287,1.709 -4.603,2.937c-1.315,1.227 -2.367,2.63 -3.156,4.208c-0.789,1.578 -1.183,3.215 -1.183,4.91l27.705,-0Zm-27.881,4.734c0.176,2.046 0.672,3.975 1.491,5.787c0.818,1.812 1.899,3.375 3.244,4.69c1.344,1.316 2.893,2.353 4.646,3.113c1.754,0.76 3.654,1.14 5.699,1.14c3.098,-0 5.772,-0.716 8.023,-2.148c2.25,-1.432 3.96,-3.084 5.129,-4.954l4.471,3.682c-2.455,3.098 -5.158,5.319 -8.11,6.664c-2.952,1.344 -6.123,2.016 -9.513,2.016c-3.039,0 -5.859,-0.541 -8.46,-1.622c-2.601,-1.081 -4.837,-2.586 -6.707,-4.515c-1.871,-1.929 -3.347,-4.209 -4.428,-6.839c-1.081,-2.63 -1.622,-5.494 -1.622,-8.592c-0,-3.098 0.526,-5.962 1.578,-8.592c1.052,-2.63 2.513,-4.91 4.384,-6.839c1.87,-1.929 4.062,-3.434 6.575,-4.515c2.514,-1.081 5.232,-1.622 8.154,-1.622c3.098,0 5.874,0.555 8.329,1.666c2.455,1.11 4.516,2.586 6.181,4.427c1.666,1.842 2.938,4.004 3.814,6.488c0.877,2.485 1.315,5.129 1.315,7.935l0,2.63l-34.193,0Z" style="fill:#34475a;fill-rule:nonzero;"/><path d="M152.177,204.349l-21.445,-21.445c-0.872,-0.872 -0.872,-2.285 -0,-3.157c-0,-0 5.904,-5.904 9.423,-9.423c2.192,-2.193 5.503,-2.82 8.346,-1.581c6.23,2.715 19.391,8.452 23.15,10.09c0.931,0.406 1.778,0.983 2.497,1.702l38.681,38.682l-0.002,-0.002c0.388,0.387 0.623,0.905 0.653,1.457c0.035,0.634 -0.201,1.253 -0.651,1.702l-19.734,19.735c-0.872,0.872 -2.286,0.872 -3.158,0l-21.446,-21.445l-43.889,43.889l-0.001,-0.001c-0.41,0.411 -0.974,0.655 -1.578,0.655c-0.604,-0 -1.168,-0.244 -1.578,-0.655l-0.001,0.001l-13.156,-13.157c-0.872,-0.872 -0.872,-2.285 -0,-3.158l43.889,-43.889Zm3.157,3.158l-42.31,42.31l9.999,10l42.31,-42.311l-9.999,-9.999Zm16.314,9.999l19.868,19.867l16.577,-16.577l-37.103,-37.103c-0.323,-0.324 -0.704,-0.584 -1.123,-0.766c-3.759,-1.638 -16.92,-7.375 -23.15,-10.09c-1.16,-0.506 -2.51,-0.25 -3.405,0.644l-7.844,7.845l19.866,19.866l4.264,-4.264c0.419,-0.419 0.987,-0.654 1.579,-0.654c0.593,-0 1.16,0.235 1.579,0.654l13.157,13.156c0.872,0.872 0.872,2.286 -0,3.158l-4.265,4.264Zm-13.156,-13.157l9.999,9.999l2.685,-2.685l-9.999,-9.999l-2.685,2.685Z" style="fill:#34475a;"/></g></svg>