<?xml version="1.0" encoding="UTF-8" standalone="no"?><!DOCTYPE svg PUBLIC "-//W3C//DTD SVG 1.1//EN" "http://www.w3.org/Graphics/SVG/1.1/DTD/svg11.dtd"><svg width="100%" height="100%" viewBox="0 0 800 400" version="1.1" xmlns="http://www.w3.org/2000/svg" xmlns:xlink="http://www.w3.org/1999/xlink" xml:space="preserve" xmlns:serif="http://www.serif.com/" style="fill-rule:evenodd;clip-rule:evenodd;stroke-linejoin:round;stroke-miterlimit:2;"><rect id="background" x="0" y="0" width="800" height="400" style="fill:#fde78e;"/><path id="icon" d="M396.477,47.941c-1.324,-0.002 -2.657,0.433 -3.767,1.328c-1.232,0.994 -2.423,2.508 -3.364,4.586c-1.319,2.913 -2.286,7.387 -2.847,12.581c-0.193,1.787 -0.344,3.668 -0.461,5.596c-20.097,0.291 -37.772,6.334 -49.91,14.277c-8.926,5.842 -14.894,12.851 -17.339,19.451c-6.511,3.727 -11.861,9.251 -15.374,15.894c-18.094,3.626 -31.744,19.614 -31.744,38.767c0,18.317 12.483,33.742 29.401,38.224l0,131.914c0,13.382 10.864,24.246 24.246,24.246c0,-0 122.04,-0 122.04,-0c13.382,-0 24.246,-10.864 24.246,-24.246l0,-17.493c9.529,1.796 17.495,0.85 24.15,-1.908c7.992,-3.311 14.202,-9.296 18.905,-16.915c6.437,-10.427 10.021,-24.016 11.859,-37.141c1.741,-12.221 -1.91,-24.61 -10.009,-33.945c-8.099,-9.335 -19.85,-14.697 -32.208,-14.697l-12.697,0l0,-11.715c1.959,0.461 4,0.704 6.098,0.704c14.678,-0 26.595,-11.917 26.595,-26.594c-0,-14.678 -11.917,-26.595 -26.595,-26.595c-0.722,0 -1.437,0.029 -2.144,0.086c-1.022,-1.919 -2.198,-3.743 -3.512,-5.456c2.085,-12.846 -2.078,-25.464 -10.997,-36.286c-12.748,-15.468 -35.52,-27.271 -62.437,-30.008l17.865,-1.004c9.735,-0.548 17.184,-8.883 16.637,-18.619c-0.072,-1.27 -0.119,-2.115 -0.119,-2.115c-0.186,-3.308 -3.019,-5.839 -6.328,-5.653c0,-0 -15.288,0.859 -24.992,1.404c-1.86,0.105 -3.614,0.573 -5.198,1.332Zm-50.62,131.732l-0.681,1.183l-1.086,1.711l-0.71,1.021l-1.171,1.546l-0.941,1.135l-1.191,1.322l-0.937,0.96l-1.029,0.982l-1.014,0.902l-0.11,0.094c-0.47,0.401 -0.949,0.791 -1.439,1.169l-0.37,0.284c-6.19,4.675 -13.814,7.558 -22.106,7.935l0,130.642c0,6.759 5.487,12.246 12.246,12.246l122.04,-0c6.759,-0 12.246,-5.487 12.246,-12.246l0,-135.35c-5.083,1.556 -11.874,2.456 -19.96,1.58l-0.583,-0.066c-10.07,-1.188 -22.406,-9.162 -29.405,-14.255c-1.532,-1.115 -2.809,-2.093 -3.75,-2.831l-36.429,0l-23.6,0l-0.02,0.036Zm34.481,25.226l0,112.644c0,3.312 2.689,6 6,6c3.312,0 6,-2.688 6,-6l0,-112.644c0,-3.311 -2.688,-6 -6,-6c-3.311,0 -6,2.689 -6,6Zm-39.148,0l-0,112.644c-0,3.312 2.688,6 6,6c3.311,0 6,-2.688 6,-6l-0,-112.644c-0,-3.311 -2.689,-6 -6,-6c-3.312,0 -6,2.689 -6,6Zm76.386,0l0,112.644c0,3.312 2.689,6 6,6c3.312,0 6,-2.688 6,-6l0,-112.644c0,-3.311 -2.688,-6 -6,-6c-3.311,0 -6,2.689 -6,6Zm54.028,91.514l0,4.389c7.8,1.85 14.24,1.473 19.556,-0.73c7.2,-2.983 12.165,-9.207 15.78,-16.704c4.028,-8.356 6.345,-18.3 7.694,-27.93c0.001,-0.005 0.001,-0.01 0.002,-0.015c1.252,-8.791 -1.371,-17.694 -7.191,-24.402c-5.82,-6.708 -14.264,-10.561 -23.144,-10.561l-12.697,0l0,5.362l13.472,-0c6.052,-0 11.836,2.492 15.994,6.889c4.157,4.398 6.321,10.313 5.982,16.355c-0.48,8.555 -1.899,18.713 -5.296,27.221c-2.893,7.244 -7.241,13.305 -13.278,16.86c-4.535,2.67 -10.08,4.051 -16.874,3.266Zm0,-58.591l13.472,-0c2.752,-0 5.383,1.133 7.274,3.133c1.891,2 2.875,4.69 2.721,7.438c-0,0 -0,0 -0,0c-0.414,7.363 -1.536,16.123 -4.459,23.443c-1.848,4.628 -4.367,8.699 -8.223,10.97c-2.867,1.688 -6.414,2.238 -10.785,1.485l0,-20.155l0,-26.314Zm-10.511,-93.348c-4.986,-5.504 -12.187,-8.964 -20.191,-8.964c-4.946,-0 -9.586,1.32 -13.585,3.629c-1.484,0.858 -3.264,1.039 -4.891,0.499c-1.626,-0.54 -2.944,-1.749 -3.622,-3.324c-2.622,-6.095 -8.683,-10.37 -15.736,-10.37c-4.349,-0 -8.322,1.626 -11.342,4.302c-1.38,1.223 -3.247,1.744 -5.061,1.411c-1.815,-0.332 -3.375,-1.481 -4.232,-3.115c-2.444,-4.662 -7.33,-7.848 -12.956,-7.848c-1.906,-0 -3.728,0.364 -5.398,1.03c-2.206,0.879 -4.724,0.374 -6.421,-1.289c-4.968,-4.869 -11.77,-7.874 -19.269,-7.874c-11.413,0 -21.213,6.959 -25.389,16.86c-0.844,2.002 -2.705,3.391 -4.865,3.631c-13.757,1.53 -24.464,13.21 -24.464,27.369c0,14.929 11.907,27.1 26.734,27.526l0.938,0.012c11.348,-0.053 21.098,-6.797 25.255,-16.653l0.176,-0.379l0.162,-0.299c0.353,-0.609 0.805,-1.143 1.331,-1.584l0.589,-0.437l0.466,-0.274l0.503,-0.237c0.533,-0.221 1.101,-0.367 1.689,-0.427c5.233,-0.566 22.712,-0.032 27.963,-0.032l38.555,0l1.155,0.116l1.094,0.329l0.885,0.45l0.533,0.37l0.221,0.18c-0,0 16.214,14.268 28.547,15.724l0.161,0.018c6.566,0.754 12,0.108 15.842,-1.128c1.243,-0.401 2.285,-0.807 3.043,-1.258c0.288,-0.185 0.545,-0.375 0.769,-0.569l0.052,-0.047l-0.009,0.01c2.257,-1.916 5.578,-1.9 7.817,0.045c2.561,2.225 5.905,3.572 9.56,3.572c8.055,-0 14.595,-6.54 14.595,-14.594c-0,-8.055 -6.54,-14.595 -14.595,-14.595c-1.396,0 -2.748,0.196 -4.026,0.562c-3.005,0.863 -6.169,-0.727 -7.271,-3.653c-1.197,-3.182 -2.973,-6.081 -5.199,-8.569l-0.019,-0.021c-0.016,-0.017 -0.032,-0.035 -0.048,-0.053l-0.046,-0.052Zm-75.399,-60.437c-17.3,0.339 -32.522,5.459 -42.994,12.313c-2.088,1.366 -3.99,2.784 -5.659,4.234c0.446,-0.015 0.896,-0.023 1.348,-0.023c9.445,0 18.121,3.318 24.924,8.853c1.979,-0.471 4.043,-0.72 6.164,-0.72c7.822,-0 14.86,3.38 19.73,8.758c4.122,-2.237 8.845,-3.508 13.861,-3.508c9.763,-0 18.41,4.814 23.693,12.196c4.388,-1.698 9.157,-2.63 14.141,-2.63c7.061,-0 13.688,1.869 19.415,5.139c-0.854,-6.523 -3.885,-12.78 -8.528,-18.413c-11.029,-13.382 -30.842,-23.255 -54.111,-25.674c-0.007,6.875 0.254,13.07 0.412,16.178c5.001,0.381 9.847,-0.175 13.346,-3.117c2.534,-2.132 6.322,-1.804 8.454,0.73c2.131,2.534 1.804,6.322 -0.731,8.454c-7.091,5.963 -17.546,6.86 -27.646,5.199c-13.353,-2.197 -25.827,-8.487 -25.827,-8.487c-2.957,-1.492 -4.146,-5.103 -2.654,-8.06c1.492,-2.956 5.103,-4.145 8.06,-2.653c-0,-0 6.538,3.302 14.888,5.664c-0.147,-3.626 -0.301,-8.824 -0.286,-14.433Zm34.114,-26.428l-17.459,0.981c-0.99,0.056 -1.752,0.889 -1.724,1.874l15.178,-0.854c1.618,-0.09 3.038,-0.852 4.005,-2.001Z" style="fill:#3f4e53;"/></svg>