<?xml version="1.0" encoding="UTF-8" standalone="no"?><!DOCTYPE svg PUBLIC "-//W3C//DTD SVG 1.1//EN" "http://www.w3.org/Graphics/SVG/1.1/DTD/svg11.dtd"><svg width="100%" height="100%" viewBox="0 0 800 400" version="1.1" xmlns="http://www.w3.org/2000/svg" xmlns:xlink="http://www.w3.org/1999/xlink" xml:space="preserve" xmlns:serif="http://www.serif.com/" style="fill-rule:evenodd;clip-rule:evenodd;stroke-linejoin:round;stroke-miterlimit:2;"><rect x="-53.018" y="-32.095" width="909.456" height="558.454" style="fill:#3f4e53;"/><g><path d="M175.232,184.662l-0,8.25l-11.391,0l-1.687,13.453l10.406,0l-0,8.25l-11.438,0l-2.765,22.406l-8.25,-1.078l2.672,-21.328l-13.922,0l-2.813,22.406l-8.343,-1.078l2.671,-21.515l-10.687,-0l-0,-8.063l11.859,0l1.688,-13.453l-10.828,0l-0,-8.25l11.859,0l2.578,-21l8.203,1.078l-2.484,19.922l13.828,0l2.625,-21l8.203,1.078l-2.484,19.922l10.5,0Zm-19.875,8.25l-13.781,0l-1.688,13.453l13.875,0l1.594,-13.453Z" style="fill:#fa8f9f;fill-rule:nonzero;"/><path d="M212.732,236.693l15.234,-77.812l24.844,56.25l25.734,-56.25l13.688,77.812l-11.203,0l-6.985,-43.687l-21.422,47.015l-20.812,-47.062l-7.781,43.734l-11.297,0Z" style="fill:#fa8f9f;fill-rule:nonzero;"/><path d="M339.201,191.037l10.593,0l0,45.656l-10.593,0l-0,-4.781c-4.344,4.063 -9.016,6.094 -14.016,6.094c-6.313,-0 -11.531,-2.281 -15.656,-6.844c-4.094,-4.656 -6.141,-10.469 -6.141,-17.437c0,-6.844 2.047,-12.547 6.141,-17.11c4.093,-4.562 9.218,-6.844 15.375,-6.844c5.312,0 10.078,2.188 14.297,6.563l-0,-5.297Zm-25.032,22.688c0,4.375 1.172,7.937 3.516,10.687c2.406,2.781 5.437,4.172 9.094,4.172c3.906,-0 7.062,-1.344 9.468,-4.031c2.407,-2.782 3.61,-6.313 3.61,-10.594c-0,-4.281 -1.203,-7.813 -3.61,-10.594c-2.406,-2.719 -5.531,-4.078 -9.375,-4.078c-3.625,0 -6.656,1.375 -9.093,4.125c-2.407,2.781 -3.61,6.219 -3.61,10.313Z" style="fill:#fa8f9f;fill-rule:nonzero;"/><path d="M363.107,191.037l10.547,0l-0,4.078c1.937,-2.031 3.656,-3.422 5.156,-4.172c1.531,-0.781 3.344,-1.172 5.437,-1.172c2.782,0 5.688,0.907 8.719,2.719l-4.828,9.656c-2,-1.437 -3.953,-2.156 -5.859,-2.156c-5.75,0 -8.625,4.344 -8.625,13.031l-0,23.672l-10.547,0l-0,-45.656Z" style="fill:#fa8f9f;fill-rule:nonzero;"/><path d="M411.013,157.521l0,48.282l14.859,-14.766l14.157,0l-19.828,19.172l21.281,26.484l-13.688,0l-15.093,-19.265l-1.688,1.687l0,17.578l-10.547,0l0,-79.172l10.547,0Z" style="fill:#fa8f9f;fill-rule:nonzero;"/><path d="M481.935,157.521l10.594,0l-0,79.172l-10.594,0l-0,-4.781c-4.156,4.063 -8.859,6.094 -14.109,6.094c-6.25,-0 -11.438,-2.281 -15.563,-6.844c-4.094,-4.656 -6.141,-10.469 -6.141,-17.437c0,-6.813 2.047,-12.5 6.141,-17.063c4.063,-4.594 9.172,-6.891 15.328,-6.891c5.344,0 10.125,2.188 14.344,6.563l-0,-38.813Zm-25.031,56.204c-0,4.375 1.172,7.937 3.515,10.687c2.407,2.781 5.438,4.172 9.094,4.172c3.906,-0 7.063,-1.344 9.469,-4.031c2.406,-2.782 3.609,-6.313 3.609,-10.594c0,-4.281 -1.203,-7.813 -3.609,-10.594c-2.406,-2.719 -5.531,-4.078 -9.375,-4.078c-3.625,0 -6.656,1.375 -9.094,4.125c-2.406,2.781 -3.609,6.219 -3.609,10.313Z" style="fill:#fa8f9f;fill-rule:nonzero;"/><path d="M503.685,213.537c-0,-6.594 2.359,-12.203 7.078,-16.828c4.719,-4.625 10.469,-6.938 17.25,-6.938c6.813,0 12.594,2.329 17.344,6.985c4.687,4.656 7.031,10.375 7.031,17.156c0,6.844 -2.359,12.578 -7.078,17.203c-4.75,4.594 -10.578,6.891 -17.484,6.891c-6.844,-0 -12.579,-2.344 -17.204,-7.031c-4.625,-4.625 -6.937,-10.438 -6.937,-17.438Zm10.781,0.188c0,4.562 1.219,8.171 3.656,10.828c2.5,2.687 5.797,4.031 9.891,4.031c4.125,-0 7.422,-1.328 9.891,-3.984c2.468,-2.657 3.703,-6.204 3.703,-10.641c-0,-4.438 -1.235,-7.984 -3.703,-10.641c-2.5,-2.687 -5.797,-4.031 -9.891,-4.031c-4.031,0 -7.297,1.344 -9.797,4.031c-2.5,2.688 -3.75,6.157 -3.75,10.407Z" style="fill:#fa8f9f;fill-rule:nonzero;"/><path d="M567.435,191.037l11.953,26.063l12.891,-30.235l12.984,30.235l11.813,-26.063l11.812,0l-23.906,49.078l-12.703,-29.39l-12.844,29.39l-23.859,-49.078l11.859,0Z" style="fill:#fa8f9f;fill-rule:nonzero;"/><path d="M636.013,191.037l10.594,0l-0,4.219c3.687,-3.656 7.844,-5.485 12.469,-5.485c5.312,0 9.453,1.672 12.421,5.016c2.563,2.844 3.844,7.484 3.844,13.922l0,27.984l-10.594,0l0,-25.5c0,-4.5 -0.625,-7.609 -1.875,-9.328c-1.218,-1.75 -3.437,-2.625 -6.656,-2.625c-3.5,0 -5.984,1.156 -7.453,3.469c-1.437,2.281 -2.156,6.266 -2.156,11.953l-0,22.031l-10.594,0l0,-45.656Z" style="fill:#fa8f9f;fill-rule:nonzero;"/></g></svg>