<?xml version="1.0" encoding="UTF-8" standalone="no"?><!DOCTYPE svg PUBLIC "-//W3C//DTD SVG 1.1//EN" "http://www.w3.org/Graphics/SVG/1.1/DTD/svg11.dtd"><svg width="100%" height="100%" viewBox="0 0 800 400" version="1.1" xmlns="http://www.w3.org/2000/svg" xmlns:xlink="http://www.w3.org/1999/xlink" xml:space="preserve" xmlns:serif="http://www.serif.com/" style="fill-rule:evenodd;clip-rule:evenodd;stroke-linejoin:round;stroke-miterlimit:2;"><rect x="-53.018" y="-32.095" width="909.456" height="558.454" style="fill:url(#_Linear1);"/><path d="M244.988,305.676c-0,-9.004 -7.31,-16.314 -16.314,-16.314l-151.794,0c-9.003,0 -16.313,7.31 -16.313,16.314c-0,-0 -0,119.53 -0,119.53c-0,9.003 7.31,16.313 16.313,16.313c0,0 151.794,0 151.794,0c9.004,0 16.314,-7.31 16.314,-16.313c-0,-0 -0,-119.53 -0,-119.53Zm-6,-0l-0,119.53c-0,5.692 -4.621,10.313 -10.314,10.313l-151.794,0c-5.692,0 -10.313,-4.621 -10.313,-10.313l-0,-119.53c-0,-5.692 4.621,-10.314 10.313,-10.314c0,0 151.794,0 151.794,0c5.693,0 10.314,4.622 10.314,10.314Z" style="fill:#f5f6f5;fill-opacity:0.47;"/><path d="M120.608,339.897c-0,-3.378 -2.743,-6.122 -6.122,-6.122l-28.028,0c-3.379,0 -6.122,2.744 -6.122,6.122l0,29.749c0,3.379 2.743,6.122 6.122,6.122c0,-0 28.028,-0 28.028,-0c3.379,-0 6.122,-2.743 6.122,-6.122c-0,-0 -0,-29.749 -0,-29.749Zm-6,0l-0,29.749c-0,0.067 -0.055,0.122 -0.122,0.122l-28.028,-0c-0.067,-0 -0.122,-0.055 -0.122,-0.122c0,-0 0,-29.749 0,-29.749c0,-0.067 0.055,-0.122 0.122,-0.122c0,0 28.028,0 28.028,0c0.067,0 0.122,0.055 0.122,0.122Z" style="fill:#f5f6f5;fill-opacity:0.47;"/><path d="M120.608,388.652c-0,-3.378 -2.743,-6.121 -6.122,-6.121l-28.028,-0c-3.379,-0 -6.122,2.743 -6.122,6.121l0,29.749c0,3.379 2.743,6.122 6.122,6.122c0,-0 28.028,-0 28.028,-0c3.379,-0 6.122,-2.743 6.122,-6.122c-0,-0 -0,-29.749 -0,-29.749Zm-6,0l-0,29.749c-0,0.067 -0.055,0.122 -0.122,0.122l-28.028,-0c-0.067,-0 -0.122,-0.055 -0.122,-0.122c0,-0 0,-29.749 0,-29.749c0,-0.067 0.055,-0.121 0.122,-0.121c0,-0 28.028,-0 28.028,-0c0.067,-0 0.122,0.054 0.122,0.121Z" style="fill:#f5f6f5;fill-opacity:0.47;"/><path d="M172.864,338.861c0,-2.807 -2.278,-5.086 -5.085,-5.086l-30.1,0c-2.807,0 -5.086,2.279 -5.086,5.086l0,18.724c0,2.807 2.279,5.086 5.086,5.086c-0,-0 30.1,-0 30.1,-0c2.807,-0 5.085,-2.279 5.085,-5.086c0,0 0,-18.724 0,-18.724Zm-34.271,0.914l0,16.896l28.271,-0l0,-16.896l-28.271,0Z" style="fill:#f5f6f5;fill-opacity:0.47;"/><path d="M172.864,375.854c0,-3.359 -2.727,-6.086 -6.086,-6.086l-28.099,-0c-3.359,-0 -6.086,2.727 -6.086,6.086l0,27.708c0,3.359 2.727,6.086 6.086,6.086l28.099,0c3.359,0 6.086,-2.727 6.086,-6.086c0,0 0,-27.708 0,-27.708Zm-6,-0l0,27.708c0,0.048 -0.038,0.086 -0.086,0.086c0,0 -28.099,0 -28.099,0c-0.047,0 -0.086,-0.038 -0.086,-0.086c0,0 0,-27.708 0,-27.708c0,-0.048 0.039,-0.086 0.086,-0.086c0,-0 28.099,-0 28.099,-0c0.048,-0 0.086,0.038 0.086,0.086Z" style="fill:#f5f6f5;fill-opacity:0.47;"/><path d="M225.194,339.387c-0,-3.097 -2.515,-5.612 -5.612,-5.612l-29.049,0c-3.097,0 -5.611,2.515 -5.611,5.612c0,-0 0,23.443 0,23.443c0,3.097 2.514,5.611 5.611,5.611l29.049,-0c3.097,-0 5.612,-2.514 5.612,-5.611c-0,-0 -0,-23.443 -0,-23.443Zm-34.272,0.388l0,22.666l28.272,-0l-0,-22.666l-28.272,0Z" style="fill:#f5f6f5;fill-opacity:0.47;"/><path d="M225.194,380.22c-0,-2.692 -2.186,-4.878 -4.879,-4.878l-30.514,-0c-2.693,-0 -4.879,2.186 -4.879,4.878c0,0 0,16.864 0,16.864c0,2.693 2.186,4.879 4.879,4.879l30.514,-0c2.693,-0 4.879,-2.186 4.879,-4.879c-0,0 -0,-16.864 -0,-16.864Zm-34.272,1.122l0,14.621l28.272,-0l-0,-14.621l-28.272,-0Z" style="fill:#f5f6f5;fill-opacity:0.47;"/><path d="M474.728,314.031c0,-5.075 -4.12,-9.195 -9.196,-9.195c0,-0 -84.784,-0 -84.784,-0c-5.075,-0 -9.196,4.12 -9.196,9.195l0,55.627c0,5.075 4.121,9.196 9.196,9.196l84.784,-0c5.076,-0 9.196,-4.121 9.196,-9.196l0,-55.627Zm-6,0l0,55.627c0,1.764 -1.432,3.196 -3.196,3.196c0,-0 -84.784,-0 -84.784,-0c-1.764,-0 -3.196,-1.432 -3.196,-3.196c0,0 0,-55.627 0,-55.627c0,-1.763 1.432,-3.195 3.196,-3.195l84.784,-0c1.764,-0 3.196,1.432 3.196,3.195Z" style="fill:#f5f6f5;fill-opacity:0.47;"/><path d="M349.451,347.362c0,-3.232 -2.623,-5.855 -5.855,-5.855c0,-0 -39.074,-0 -39.074,-0c-3.232,-0 -5.856,2.623 -5.856,5.855c0,-0 0,25.636 0,25.636c0,3.232 2.624,5.856 5.856,5.856l39.074,-0c3.232,-0 5.855,-2.624 5.855,-5.856c0,0 0,-25.636 0,-25.636Zm-44.785,0.145l0,25.347l38.785,-0l0,-25.347l-38.785,-0Z" style="fill:#f5f6f5;fill-opacity:0.47;"/><path d="M547.623,347.362c-0,-3.232 -2.624,-5.855 -5.856,-5.855c0,-0 -39.074,-0 -39.074,-0c-3.232,-0 -5.855,2.623 -5.855,5.855l-0,25.636c-0,3.232 2.623,5.856 5.855,5.856l39.074,-0c3.232,-0 5.856,-2.624 5.856,-5.856l-0,-25.636Zm-44.785,0.145l-0,25.347l38.785,-0l-0,-25.347l-38.785,-0Z" style="fill:#f5f6f5;fill-opacity:0.47;"/><path d="M859.438,334.114c-0,-13.398 -10.877,-24.275 -24.275,-24.275l-119.655,0c-13.398,0 -24.275,10.877 -24.275,24.275c0,13.397 10.877,24.274 24.275,24.274l119.655,0c13.398,0 24.275,-10.877 24.275,-24.274Zm-6,-0c-0,10.086 -8.189,18.274 -18.275,18.274c0,0 -119.655,0 -119.655,0c-10.086,0 -18.275,-8.188 -18.275,-18.274c0,-10.086 8.189,-18.275 18.275,-18.275c-0,0 119.655,0 119.655,0c10.086,0 18.275,8.189 18.275,18.275Z" style="fill:#f5f6f5;fill-opacity:0.47;"/><path d="M859.438,407.99c-0,-13.398 -10.877,-24.275 -24.275,-24.275c0,0 -119.655,0 -119.655,0c-13.398,0 -24.275,10.877 -24.275,24.275c0,13.397 10.877,24.274 24.275,24.274c-0,0 119.655,0 119.655,0c13.398,0 24.275,-10.877 24.275,-24.274Zm-6,-0c-0,10.086 -8.189,18.274 -18.275,18.274l-119.655,0c-10.086,0 -18.275,-8.188 -18.275,-18.274c0,-10.086 8.189,-18.275 18.275,-18.275l119.655,0c10.086,0 18.275,8.189 18.275,18.275Z" style="fill:#f5f6f5;fill-opacity:0.47;"/><path d="M66.465,319.433l172.528,-0l-0,-6l-172.528,-0l-0,6Z" style="fill:#f5f6f5;fill-opacity:0.47;"/><path d="M426.097,130.146l149.502,0l-0,-6l-149.502,0l0,6Z" style="fill:#f5f6f5;fill-opacity:0.47;"/><path d="M604.565,96.288c0,-5.573 -4.525,-10.099 -10.099,-10.099c0,0 -164.222,0 -164.222,0c-5.574,0 -10.099,4.526 -10.099,10.099l-0,63.738c-0,5.574 4.525,10.099 10.099,10.099c-0,-0 164.222,-0 164.222,-0c5.574,-0 10.099,-4.525 10.099,-10.099c0,-0 0,-63.738 0,-63.738Zm-6,0l0,63.738c0,2.262 -1.836,4.099 -4.099,4.099l-164.222,-0c-2.263,-0 -4.099,-1.837 -4.099,-4.099c-0,-0 -0,-63.738 -0,-63.738c-0,-2.262 1.836,-4.099 4.099,-4.099l164.222,0c2.263,0 4.099,1.837 4.099,4.099Z" style="fill:#f5f6f5;fill-opacity:0.47;"/><path d="M172.864,36.442l86.347,0l-0,-6l-86.347,0l0,6Z" style="fill:#f5f6f5;fill-opacity:0.47;"/><path d="M265.234,52.595l-0,-37.898l-98.37,0l0,37.898l98.37,0Zm-6,-31.898l-0,25.898c-0,0 -86.37,0 -86.37,0c0,0 0,-25.898 0,-25.898l86.37,0Z" style="fill:#f5f6f5;fill-opacity:0.47;"/><path d="M271.222,52.391l86.347,0l-0,-6l-86.347,0l0,6Z" style="fill:#f5f6f5;fill-opacity:0.47;"/><path d="M271.222,67.748l86.347,0l-0,-6l-86.347,0l0,6Z" style="fill:#f5f6f5;fill-opacity:0.47;"/><path d="M271.222,83.119l86.347,-0l-0,-6l-86.347,-0l0,6Z" style="fill:#f5f6f5;fill-opacity:0.47;"/><path d="M363.592,98.836l-0,-68.19l-98.369,0l-0,68.19l98.369,-0Zm-6,-62.19l-0,56.19c-0,-0 -86.369,-0 -86.369,-0c-0,-0 -0,-56.19 -0,-56.19l86.369,0Z" style="fill:#f5f6f5;fill-opacity:0.47;"/><path d="M604.565,194.328c0,-3.416 -2.774,-6.19 -6.191,-6.19c0,-0 -172.039,-0 -172.039,-0c-3.416,-0 -6.19,2.774 -6.19,6.19l-0,28.648c-0,3.417 2.774,6.191 6.19,6.191l172.039,0c3.417,0 6.191,-2.774 6.191,-6.191c0,0 0,-28.648 0,-28.648Zm-6,0l0,28.648c0,0.106 -0.085,0.191 -0.191,0.191c0,0 -172.039,0 -172.039,0c-0.105,0 -0.19,-0.085 -0.19,-0.191c-0,0 -0,-28.648 -0,-28.648c-0,-0.105 0.085,-0.19 0.19,-0.19l172.039,-0c0.106,-0 0.191,0.085 0.191,0.19Z" style="fill:#f5f6f5;fill-opacity:0.47;"/><g><path d="M75.88,65.949l-0.444,0.968l26.487,-0c8.657,-0 15.685,-7.028 15.685,-15.685c-0,-8.656 -7.028,-15.684 -15.685,-15.684c0,-0 -26.438,-0 -26.438,-0l0.78,1.634c-4.93,-8.796 -14.344,-14.747 -25.138,-14.747c-15.893,0 -28.797,12.904 -28.797,28.797c0,15.894 12.904,28.797 28.797,28.797c10.519,0 19.728,-5.651 24.753,-14.08Zm-24.753,-37.514c12.582,0 22.798,10.215 22.798,22.797c-0,12.582 -10.216,22.797 -22.798,22.797c-12.582,0 -22.797,-10.215 -22.797,-22.797c0,-12.582 10.215,-22.797 22.797,-22.797Zm26.761,12.147c1.314,3.294 2.037,6.888 2.037,10.65c-0,3.397 -0.59,6.657 -1.672,9.685l23.67,-0c5.345,-0 9.685,-4.34 9.685,-9.685c-0,-5.345 -4.34,-9.684 -9.685,-9.684l-23.574,-0l-0.461,-0.966Z" style="fill:#f5f6f5;fill-opacity:0.47;"/></g><path d="M216.74,95.458c1.113,-2.28 3.455,-3.853 6.162,-3.853c2.706,0 5.048,1.573 6.162,3.853l14.421,0c1.656,0 3,1.344 3,3c0,1.656 -1.344,3 -3,3l-14.421,0c-1.114,2.28 -3.456,3.853 -6.162,3.853c-2.707,-0 -5.049,-1.573 -6.162,-3.853l-68.838,0c-1.655,0 -3,-1.344 -3,-3c0,-1.656 1.345,-3 3,-3l68.838,0Z" style="fill:#f5f6f5;fill-opacity:0.47;"/><g><path d="M64.182,113.096c4.93,-8.796 14.345,-14.747 25.138,-14.747c15.894,0 28.797,12.904 28.797,28.797c0,15.894 -12.903,28.797 -28.797,28.797c-10.518,0 -19.727,-5.651 -24.753,-14.08l0.444,0.968l-26.487,-0c-8.656,-0 -15.684,-7.028 -15.684,-15.685c-0,-8.656 7.028,-15.684 15.684,-15.684c0,-0 26.438,-0 26.438,-0l-0.78,1.634Zm25.138,-8.747c12.582,0 22.797,10.215 22.797,22.797c0,12.582 -10.215,22.797 -22.797,22.797c-12.582,0 -22.797,-10.215 -22.797,-22.797c-0,-12.582 10.215,-22.797 22.797,-22.797Zm-26.76,12.147l-0.461,0.966l-23.575,-0c-5.345,-0 -9.684,4.339 -9.684,9.684c-0,5.345 4.339,9.685 9.684,9.685l23.671,-0c-1.083,-3.028 -1.672,-6.288 -1.672,-9.685c-0,-3.762 0.723,-7.356 2.037,-10.65Z" style="fill:#f5f6f5;fill-opacity:0.47;"/></g><g><path d="M618.679,71.904c2.734,-1.533 6.068,-1.533 8.802,-0c33.05,18.54 66.087,37.15 99.07,55.805c2.816,1.593 4.56,4.577 4.566,7.813c0.068,37.069 0.068,74.162 0,111.231c-0.006,3.236 -1.75,6.22 -4.566,7.813c-32.983,18.655 -66.02,37.265 -99.07,55.805c-2.734,1.533 -6.068,1.533 -8.802,0c-33.05,-18.54 -66.088,-37.15 -99.07,-55.805c-2.817,-1.593 -4.561,-4.577 -4.567,-7.813c-0.067,-37.069 -0.067,-74.162 0.001,-111.231c0.006,-3.236 1.749,-6.22 4.566,-7.813c32.982,-18.655 66.02,-37.265 99.07,-55.805Z" style="fill:#a3dbf4;"/><path d="M618.657,123.611c2.746,-1.547 6.1,-1.547 8.846,-0c11.379,6.409 41.579,23.421 53.139,29.932c2.835,1.597 4.589,4.599 4.589,7.853l-0,59.483c-0,3.254 -1.754,6.256 -4.589,7.853c-11.56,6.511 -41.76,23.523 -53.139,29.932c-2.746,1.547 -6.1,1.547 -8.846,0c-11.379,-6.409 -41.58,-23.421 -53.139,-29.932c-2.835,-1.597 -4.589,-4.599 -4.589,-7.853l-0,-59.483c-0,-3.254 1.754,-6.256 4.589,-7.853c11.559,-6.511 41.76,-23.523 53.139,-29.932Z" style="fill:#7ad9fb;"/><path d="M615.744,66.671c-0,0 -0,0 -0,0c-33.057,18.544 -66.101,37.157 -99.089,55.815c0,0.001 0,0.001 -0,0.001c-4.696,2.656 -7.602,7.629 -7.612,13.024c-0,-0 -0,-0 -0,-0c-0.068,37.076 -0.068,74.177 -0.001,111.253c0,0 0,0 0,0c0.01,5.395 2.917,10.369 7.613,13.025c0,-0 0,-0 0,-0c32.988,18.658 66.032,37.271 99.089,55.815c-0,0 -0,0 -0,0c4.557,2.556 10.115,2.556 14.672,-0c0,-0 0,-0 0,-0c33.056,-18.544 66.1,-37.157 99.088,-55.815c0.001,-0 0.001,-0 0.001,-0.001c4.695,-2.656 7.602,-7.629 7.612,-13.024c0,0 0,0 0,0c0.068,-37.076 0.068,-74.177 0,-111.253c0,-0 0,-0 0,-0c-0.01,-5.395 -2.917,-10.369 -7.612,-13.024c-0,-0 -0,-0 -0.001,-0.001c-32.988,-18.658 -66.032,-37.271 -99.088,-55.815c0,0 -0,0 -0,-0c-4.557,-2.556 -10.116,-2.556 -14.672,0Zm-54.562,164.498l-35.448,19.968c30.91,17.478 61.873,34.919 92.846,52.298l-0,-39.882c-0.731,-0.258 -1.444,-0.58 -2.132,-0.968c-11.378,-6.409 -41.579,-23.421 -53.138,-29.932c-0.764,-0.43 -1.475,-0.928 -2.128,-1.484Zm123.796,-0c-0.653,0.556 -1.364,1.054 -2.128,1.484c-11.559,6.511 -41.76,23.523 -53.138,29.932c-0.688,0.388 -1.402,0.71 -2.132,0.968l-0,39.882c30.97,-17.377 61.93,-34.817 92.846,-52.298l-35.448,-19.968Zm-57.398,-37.401l53.151,-29.94l-0,57.051c-0,1.63 -0.878,3.132 -2.298,3.932l-50.853,28.645l-0,-59.688Zm-62.151,-29.94l53.151,29.94l-0,59.688l-50.853,-28.645c-1.42,-0.8 -2.298,-2.302 -2.298,-3.932l-0,-57.051Zm-44.392,-25.057c-0.06,34.885 -0.06,69.792 -0,104.682l35.626,-20.068c-0.154,-0.817 -0.234,-1.656 -0.234,-2.506l-0,-59.483c-0,-0.85 0.08,-1.689 0.234,-2.506l-35.092,-19.767c-0.189,-0.106 -0.367,-0.224 -0.534,-0.352Zm204.086,0.051l-35.626,20.068c0.154,0.817 0.234,1.656 0.234,2.506l-0,59.483c-0,0.85 -0.08,1.689 -0.234,2.506l35.626,20.068c0.06,-34.871 0.06,-69.76 -0,-104.631Zm-49.061,17.306l-52.982,29.845l-52.982,-29.845l50.767,-28.597c1.375,-0.774 3.055,-0.774 4.429,0l50.768,28.597Zm-57.482,-77.288c-30.974,17.379 -61.937,34.82 -92.856,52.304c0.089,0.043 0.177,0.089 0.264,0.138l35.194,19.824c0.653,-0.556 1.364,-1.053 2.128,-1.484l53.138,-29.932c0.688,-0.388 1.401,-0.71 2.132,-0.968l-0,-39.882Zm9,39.649l-0,-39.649c30.972,17.379 61.935,34.82 92.846,52.299l-35.195,19.825l-57.651,-32.475Z" style="fill:#f5f6f5;"/></g><g><path d="M153.33,247.881c-0,-4.958 -4.02,-8.978 -8.978,-8.978l-77.575,-0c-2.381,-0 -4.664,-0.946 -6.348,-2.63c-1.684,-1.683 -2.63,-3.967 -2.63,-6.348c0,-21.41 0,-75.271 0,-96.681c0,-2.381 0.946,-4.665 2.63,-6.348c1.684,-1.684 3.967,-2.63 6.348,-2.63c48.375,0 277.58,0 325.955,0c2.381,0 4.664,0.946 6.348,2.63c1.684,1.683 2.63,3.967 2.63,6.348c-0,21.41 -0,75.271 -0,96.681c-0,2.381 -0.946,4.665 -2.63,6.348c-1.684,1.684 -3.967,2.63 -6.348,2.63c-29.665,-0 -124.334,-0 -153.999,-0c-4.959,-0 -8.978,4.02 -8.978,8.978c-0,0.383 -0,0.767 -0,1.15c-0,2.381 -0.946,4.665 -2.63,6.348c-1.684,1.684 -3.967,2.63 -6.349,2.63c-14.706,0 -43.762,0 -58.468,0c-2.381,0 -4.665,-0.946 -6.348,-2.63c-1.684,-1.683 -2.63,-3.967 -2.63,-6.348c-0,-0.383 -0,-0.767 -0,-1.15Z" style="fill:#f5f6f5;"/><g><path d="M115.118,210.794c-0,2.388 -0.949,4.678 -2.637,6.366c-1.688,1.688 -3.978,2.637 -6.366,2.637l-20.207,-0c-4.972,-0 -9.003,-4.031 -9.003,-9.003l0,-58.419c0,-4.972 4.031,-9.003 9.003,-9.003l58.419,0c4.972,0 9.003,4.031 9.003,9.003l-0,58.419c-0,4.972 -4.031,9.003 -9.003,9.003l-1.101,-0c-4.972,-0 -9.002,-4.031 -9.002,-9.003l-0,-39.313c-0,-4.972 -4.031,-9.003 -9.003,-9.003l-1.101,0c-4.972,0 -9.002,4.031 -9.002,9.003l-0,39.313Z" style="fill:url(#_Linear2);"/><path d="M172.436,152.388c0,-4.979 4.037,-9.016 9.016,-9.016c14.706,0 43.687,0 58.393,0c2.391,0 4.684,0.95 6.375,2.641c1.691,1.691 2.641,3.984 2.641,6.375l-0,58.393c-0,4.979 -4.037,9.016 -9.016,9.016l-20.181,-0c-4.979,-0 -9.016,4.036 -9.016,9.016c0,0.357 0,0.716 0,1.074c0,4.979 -4.036,9.016 -9.016,9.016c-6.088,-0 -14.092,-0 -20.18,-0c-4.979,-0 -9.016,-4.037 -9.016,-9.016c0,-18.228 0,-59.271 0,-77.499Zm57.319,19.106c-0,-4.979 -4.037,-9.016 -9.017,-9.016l-1.074,0c-4.979,0 -9.016,4.037 -9.016,9.016c0,6.088 0,14.093 0,20.181c0,4.979 4.037,9.016 9.016,9.016c0.358,-0 0.717,-0 1.074,-0c4.98,-0 9.017,-4.037 9.017,-9.016c-0,-6.088 -0,-14.093 -0,-20.181Z" style="fill:url(#_Linear3);"/><path d="M344.391,210.782c0,2.391 -0.949,4.684 -2.64,6.374c-1.691,1.691 -3.984,2.641 -6.375,2.641l-1.076,-0c-2.391,-0 -4.684,-0.95 -6.374,-2.641c-1.691,-1.69 -2.641,-3.983 -2.641,-6.374l0,-39.289c0,-2.391 -0.95,-4.684 -2.64,-6.374c-1.691,-1.691 -3.984,-2.641 -6.375,-2.641l-1.076,0c-2.391,0 -4.684,0.95 -6.374,2.641c-1.691,1.69 -2.641,3.983 -2.641,6.374l0,39.289c0,4.979 -4.036,9.015 -9.015,9.015c-6.088,-0 -14.094,-0 -20.182,-0c-4.979,-0 -9.015,-4.036 -9.015,-9.015c-0,-14.706 -0,-43.689 -0,-58.395c-0,-4.979 4.036,-9.015 9.015,-9.015c21.422,0 75.184,0 96.607,0c4.978,0 9.015,4.036 9.015,9.015c-0,14.706 -0,43.689 -0,58.395c-0,4.979 -4.037,9.015 -9.015,9.015c-0.359,-0 -0.718,-0 -1.076,-0c-2.391,-0 -4.684,-0.95 -6.375,-2.641c-1.691,-1.69 -2.64,-3.983 -2.64,-6.374l-0,-39.289c-0,-2.391 -0.95,-4.684 -2.641,-6.374c-1.691,-1.691 -3.984,-2.641 -6.375,-2.641l-1.076,0c-2.391,0 -4.684,0.95 -6.374,2.641c-1.691,1.69 -2.641,3.983 -2.641,6.374l0,39.289Z" style="fill:url(#_Linear4);"/></g></g><path d="M434.324,204.014l5.095,5.095c0,0 -4.181,4.181 -4.181,4.181c-1.171,1.171 -1.171,3.072 0,4.243c1.171,1.171 3.072,1.171 4.243,0l6.302,-6.302c1.172,-1.172 1.172,-3.071 0,-4.243l-7.217,-7.216c-1.17,-1.171 -3.071,-1.171 -4.242,-0c-1.171,1.17 -1.171,3.071 -0,4.242Z" style="fill:#f5f6f5;fill-opacity:0.47;"/><path d="M434.324,103.47l5.095,5.096c0,-0 -4.181,4.181 -4.181,4.181c-1.171,1.17 -1.171,3.072 0,4.242c1.171,1.171 3.072,1.171 4.243,0l6.302,-6.302c1.172,-1.172 1.172,-3.071 0,-4.243l-7.217,-7.216c-1.17,-1.171 -3.071,-1.171 -4.242,-0c-1.171,1.171 -1.171,3.072 -0,4.242Z" style="fill:#f5f6f5;fill-opacity:0.47;"/><g><path d="M401.978,353.406c-0.761,0.89 -0.935,2.142 -0.445,3.205c0.49,1.064 1.554,1.746 2.725,1.746l37.764,-0c1.171,-0 2.235,-0.682 2.725,-1.746c0.49,-1.063 0.316,-2.315 -0.445,-3.205l-7.988,-9.337c-0.57,-0.666 -1.403,-1.05 -2.28,-1.05c-0.877,0 -1.71,0.384 -2.28,1.05l-4.017,4.696c-0,0 -8.615,-10.069 -8.615,-10.069c-0.57,-0.667 -1.402,-1.05 -2.279,-1.05c-0.877,-0 -1.71,0.383 -2.28,1.05l-12.585,14.71Z" style="fill:#f5f6f5;fill-opacity:0.44;"/><circle cx="428.79" cy="332.961" r="4.628" style="fill:#f5f6f5;fill-opacity:0.44;"/></g><path d="M604.565,29.807c0,-3.417 -2.774,-6.191 -6.191,-6.191c0,-0 -172.039,-0 -172.039,-0c-3.416,-0 -6.19,2.774 -6.19,6.191l-0,28.648c-0,3.416 2.774,6.19 6.19,6.19l172.039,0c3.417,0 6.191,-2.774 6.191,-6.19c0,-0 0,-28.648 0,-28.648Zm-6,-0l0,28.648c0,0.105 -0.085,0.19 -0.191,0.19c0,0 -172.039,0 -172.039,0c-0.105,0 -0.19,-0.085 -0.19,-0.19c-0,-0 -0,-28.648 -0,-28.648c-0,-0.106 0.085,-0.191 0.19,-0.191l172.039,-0c0.106,-0 0.191,0.085 0.191,0.191Z" style="fill:#f5f6f5;fill-opacity:0.47;"/><path d="M434.324,39.492l5.095,5.096c0,-0 -4.181,4.181 -4.181,4.181c-1.171,1.171 -1.171,3.072 0,4.242c1.171,1.171 3.072,1.171 4.243,0l6.302,-6.302c1.172,-1.172 1.172,-3.071 0,-4.243l-7.217,-7.216c-1.17,-1.171 -3.071,-1.171 -4.242,-0c-1.171,1.171 -1.171,3.072 -0,4.242Z" style="fill:#f5f6f5;fill-opacity:0.47;"/><g><path d="M688.428,54.759l37.158,-0c1.656,-0 3,-1.345 3,-3c0,-1.656 -1.344,-3 -3,-3l-37.158,-0c-1.656,-0 -3,1.344 -3,3c-0,1.655 1.344,3 3,3Z" style="fill:#f5f6f5;fill-opacity:0.47;"/><path d="M688.678,65.597l37.158,0c1.656,0 3,-1.344 3,-3c0,-1.656 -1.344,-3 -3,-3l-37.158,0c-1.656,0 -3,1.344 -3,3c0,1.656 1.344,3 3,3Z" style="fill:#f5f6f5;fill-opacity:0.47;"/><path d="M688.428,76.26l37.158,-0c1.656,-0 3,-1.344 3,-3c0,-1.656 -1.344,-3 -3,-3l-37.158,-0c-1.656,-0 -3,1.344 -3,3c-0,1.656 1.344,3 3,3Z" style="fill:#f5f6f5;fill-opacity:0.47;"/></g><path d="M707.132,20.669c-23.092,0 -41.84,18.748 -41.84,41.84c0,23.092 18.748,41.84 41.84,41.84c23.092,0 41.84,-18.748 41.84,-41.84c-0,-23.092 -18.748,-41.84 -41.84,-41.84Zm0,6c19.781,0 35.84,16.06 35.84,35.84c-0,19.781 -16.059,35.84 -35.84,35.84c-19.78,0 -35.84,-16.059 -35.84,-35.84c0,-19.78 16.06,-35.84 35.84,-35.84Z" style="fill:#f5f6f5;fill-opacity:0.47;"/><defs><linearGradient id="_Linear1" x1="0" y1="0" x2="1" y2="0" gradientUnits="userSpaceOnUse" gradientTransform="matrix(909.456,0,0,558.454,-53.0183,247.132)"><stop offset="0" style="stop-color:#b6eeed;stop-opacity:1"/><stop offset="1" style="stop-color:#64b5ff;stop-opacity:1"/></linearGradient><linearGradient id="_Linear2" x1="0" y1="0" x2="1" y2="0" gradientUnits="userSpaceOnUse" gradientTransform="matrix(305.698,0,0,95.5307,76.9054,191.138)"><stop offset="0" style="stop-color:#f580a4;stop-opacity:1"/><stop offset="1" style="stop-color:#f87248;stop-opacity:1"/></linearGradient><linearGradient id="_Linear3" x1="0" y1="0" x2="1" y2="0" gradientUnits="userSpaceOnUse" gradientTransform="matrix(305.698,0,0,95.5307,76.9054,191.138)"><stop offset="0" style="stop-color:#f580a4;stop-opacity:1"/><stop offset="1" style="stop-color:#f87248;stop-opacity:1"/></linearGradient><linearGradient id="_Linear4" x1="0" y1="0" x2="1" y2="0" gradientUnits="userSpaceOnUse" gradientTransform="matrix(305.698,0,0,95.5307,76.9054,191.138)"><stop offset="0" style="stop-color:#f580a4;stop-opacity:1"/><stop offset="1" style="stop-color:#f87248;stop-opacity:1"/></linearGradient></defs></svg>